<svg width="34" height="32" viewBox="0 0 34 32" fill="none" xmlns="http://www.w3.org/2000/svg">
<path d="M31.4515 26.355L32.3379 27.2181L31.4498 26.355H31.4515ZM10.3273 22.8572L11.2121 21.9941L10.3257 22.8572H10.3273ZM3.41333 5.67328L2.52855 4.81181L3.415 5.6749L3.41333 5.67328ZM23.4181 21.501L24.1839 20.766L22.4093 19.0398L21.6485 19.7748L23.4181 21.501ZM26.746 20.4578L29.9483 22.1434L31.1465 20.0051L27.9459 18.3211L26.746 20.4578ZM30.5633 25.4919L28.1838 27.7843L29.955 29.5089L32.3346 27.2181L30.5633 25.4919ZM26.7326 28.5209C24.3028 28.7415 18.0189 28.5452 11.2121 21.9941L9.43921 23.7187C16.866 30.8684 23.9359 31.2188 26.9672 30.9447L26.731 28.5209H26.7326ZM11.2121 21.9941C4.72541 15.7481 3.6496 10.4965 3.51555 8.21713L1.00532 8.35503C1.17289 11.2234 2.50509 17.0444 9.43921 23.7187L11.2121 21.9941ZM13.5162 11.968L13.9972 11.504L12.2276 9.77946L11.7467 10.2418L13.5179 11.9664L13.5162 11.968ZM14.3792 5.60677L12.2678 2.87472L10.2553 4.33484L12.3667 7.06526L14.3792 5.60677ZM5.1611 2.27932L2.53022 4.81019L4.30313 6.53637L6.93234 4.0055L5.1611 2.27932ZM12.6315 11.1049C11.7433 10.2418 11.7433 10.2418 11.7433 10.2451H11.74L11.7349 10.2516C11.6558 10.3297 11.5846 10.415 11.5221 10.5063C11.4316 10.6361 11.3328 10.8064 11.249 11.0222C11.0449 11.5792 10.9941 12.178 11.1015 12.7597C11.3261 14.1631 12.3248 16.0174 14.882 18.4801L16.6549 16.754C14.2603 14.4502 13.6905 13.0485 13.5849 12.3866C13.5347 12.0718 13.5866 11.9161 13.6017 11.8804C13.6101 11.8577 13.6134 11.8561 13.6017 11.8707C13.5869 11.8932 13.5701 11.9143 13.5514 11.9339L13.5347 11.9502C13.5293 11.9552 13.5237 11.9601 13.5179 11.9648L12.6298 11.1049H12.6315ZM14.882 18.4801C17.4408 20.9429 19.3662 21.9033 20.8173 22.1174C21.5597 22.2278 22.1579 22.1402 22.612 21.9763C22.866 21.8853 23.1035 21.7561 23.3158 21.5934C23.3447 21.5701 23.3726 21.5457 23.3996 21.5204L23.4114 21.5107L23.4164 21.5058L23.4181 21.5026C23.4181 21.5026 23.4197 21.501 22.5333 20.6379C21.6452 19.7748 21.6502 19.7731 21.6502 19.7731L21.6535 19.7699L21.6569 19.7667L21.6669 19.7585L21.6837 19.7423C21.7038 19.7248 21.7251 19.7086 21.7474 19.6937C21.7641 19.6823 21.7591 19.6872 21.7356 19.6969C21.6937 19.7115 21.5295 19.7618 21.1994 19.7131C20.5057 19.6093 19.0478 19.0577 16.6549 16.754L14.882 18.4801ZM12.2678 2.8731C10.5586 0.666702 7.20045 0.316274 5.1611 2.27932L6.93234 4.0055C7.82382 3.14728 9.4057 3.23651 10.2553 4.33484L12.2662 2.8731H12.2678ZM3.51722 8.21875C3.48371 7.65742 3.75015 7.07013 4.30313 6.538L2.52855 4.81181C1.62869 5.67815 0.919856 6.90465 1.00532 8.35503L3.51722 8.21875ZM28.1838 27.7843C27.7247 28.2289 27.2287 28.4787 26.7343 28.5225L26.9672 30.9447C28.1989 30.8327 29.206 30.2325 29.9567 29.5105L28.1838 27.7843ZM13.9972 11.504C15.6478 9.91573 15.7701 7.40595 14.3809 5.60839L12.3684 7.06688C13.0437 7.94133 12.9431 9.08833 12.2259 9.78108L13.9972 11.504ZM29.95 22.145C31.3191 22.8654 31.5319 24.5623 30.565 25.4936L32.3379 27.2181C34.5834 25.0555 33.8913 21.449 31.1482 20.0068L29.95 22.145ZM24.1839 20.7677C24.8273 20.1479 25.8629 19.9954 26.7477 20.4594L27.9475 18.3228C26.1311 17.3656 23.8789 17.63 22.411 19.0415L24.1839 20.7677Z" fill="#F5F5F5"/>
</svg>
