<svg width="23" height="18" viewBox="0 0 23 18" fill="none" xmlns="http://www.w3.org/2000/svg">
<path d="M23 1.06954V1.27288C21.7194 6.30056 20.4215 11.3239 19.1062 16.3429C18.869 17.249 18.5761 18.1762 17.374 17.9713C17.0446 17.9149 16.6486 17.7137 16.1863 17.3677C14.9296 16.4297 13.676 15.5019 12.4254 14.5844C12.4033 14.5682 12.3757 14.5593 12.347 14.559C12.3184 14.5587 12.2903 14.567 12.2673 14.5828C11.0526 15.4092 9.83849 16.2296 8.625 17.044C8.01227 17.454 7.50914 17.3092 7.34203 16.6357C6.83292 14.5806 6.33758 12.5212 5.85602 10.4574C5.84994 10.4331 5.83768 10.4105 5.82021 10.3913C5.80273 10.3721 5.78054 10.3568 5.75539 10.3468C4.08909 9.68524 2.42937 9.02696 0.77625 8.37193C0.352188 8.20383 0.0934375 7.86439 0 7.35359V7.10958C0.126979 6.55541 0.429453 6.20729 0.907422 6.06523C7.46362 4.1099 14.0198 2.15403 20.576 0.197616C21.7296 -0.14725 22.6712 -0.145623 23 1.06954ZM17.4764 5.1266C15.2231 7.25762 12.9716 9.36423 10.7273 11.5375C10.7121 11.5523 10.7003 11.5697 10.6928 11.5888C10.6853 11.6078 10.6822 11.6281 10.6837 11.6484C10.6852 11.6686 10.6913 11.6885 10.7016 11.7066C10.7119 11.7248 10.7262 11.7408 10.7435 11.7539L17.5447 16.7951C17.5502 16.7992 17.5567 16.8019 17.5637 16.803C17.5706 16.8041 17.5778 16.8035 17.5845 16.8014C17.5911 16.7993 17.5971 16.7956 17.6018 16.7908C17.6064 16.786 17.6097 16.7802 17.6112 16.774L21.6362 1.25499C21.6517 1.19426 21.6272 1.17365 21.5625 1.19317L1.45008 7.19417C1.33867 7.22671 1.33628 7.26412 1.44289 7.30642L6.31781 9.23734C6.3385 9.24544 6.36089 9.24921 6.3833 9.24836C6.40571 9.24752 6.42755 9.24208 6.44719 9.23246L16.8852 3.98464C17.2123 3.8198 17.4776 3.87945 17.6812 4.16358C17.9418 4.52797 17.798 4.82403 17.4764 5.1266ZM9.3743 11.0398C10.7184 9.80833 12.0265 8.53135 13.3508 7.27388C13.5305 7.10254 13.5065 7.07488 13.2789 7.19092L7.34023 10.1857C7.29691 10.208 7.26256 10.2421 7.24219 10.2831C7.22183 10.324 7.21651 10.3697 7.22703 10.4135L8.00508 13.7108C8.09971 14.1121 8.19435 14.1126 8.28898 13.7125C8.4543 13.0179 8.76156 11.601 9.3743 11.0398ZM11.2053 13.7678C11.2129 13.7626 11.2191 13.7559 11.2234 13.7482C11.2277 13.7405 11.23 13.7321 11.2302 13.7234C11.2304 13.7148 11.2284 13.7063 11.2244 13.6985C11.2204 13.6907 11.2145 13.6838 11.2071 13.6783L10.0409 12.8113C10.0329 12.8052 10.0234 12.8011 10.0132 12.7992C10.0029 12.7973 9.99236 12.7978 9.98238 12.8005C9.9724 12.8032 9.96333 12.8082 9.95599 12.8149C9.94864 12.8216 9.94326 12.8299 9.94031 12.8389L9.26648 14.9781C9.26304 14.9896 9.26366 15.0017 9.26825 15.0129C9.27284 15.024 9.28117 15.0336 9.29208 15.0402C9.30298 15.0469 9.31591 15.0502 9.32904 15.0499C9.34218 15.0495 9.35486 15.0455 9.36531 15.0383L11.2053 13.7678Z" fill="#F5F5F5"/>
</svg>
