<svg width="32" height="31" viewBox="0 0 32 31" fill="none" xmlns="http://www.w3.org/2000/svg">
<path d="M15.6855 0H16.1233C24.5399 0.211309 31.2176 6.8091 31.4077 15.2627V15.7761C31.1904 24.154 24.5254 30.8692 16.0694 31H15.7388C7.30037 30.8426 0.654746 24.2103 0.407715 15.7985V15.2705C0.588145 6.85936 7.26949 0.179219 15.6855 0ZM16.5083 4.68148C22.3099 5.21611 24.7058 12.3619 20.4275 16.3095C20.423 16.3137 20.4196 16.319 20.4177 16.3248C20.4158 16.3307 20.4154 16.3369 20.4165 16.343C20.4177 16.349 20.4203 16.3547 20.4243 16.3594C20.4282 16.3642 20.4333 16.3678 20.439 16.3701C23.8236 17.733 26.4344 20.4376 27.6296 23.8839C27.631 23.8883 27.6337 23.8921 27.6372 23.895C27.6407 23.8979 27.645 23.8997 27.6495 23.9003C27.6541 23.901 27.6588 23.9003 27.663 23.8985C27.6673 23.8967 27.671 23.8937 27.6738 23.89C31.3508 18.692 31.2521 11.8296 27.4207 6.75945C24.4079 2.77244 19.5678 0.666621 14.5945 1.09529C9.44797 1.5391 4.84943 4.84678 2.72363 9.55127C0.606309 14.237 1.16031 19.6941 4.14467 23.8948C4.14716 23.8982 4.15053 23.9009 4.1544 23.9025C4.15828 23.9042 4.16251 23.9048 4.16663 23.9042C4.17076 23.9037 4.17462 23.902 4.17779 23.8994C4.18097 23.8967 4.18333 23.8933 4.18463 23.8894C5.42221 20.3964 7.9452 17.7814 11.3637 16.3761C11.37 16.3735 11.3756 16.3693 11.3799 16.364C11.3842 16.3587 11.3871 16.3524 11.3884 16.3457C11.3897 16.3389 11.3892 16.332 11.3871 16.3255C11.385 16.3189 11.3813 16.313 11.3764 16.3083C10.3338 15.3174 9.66029 14.1464 9.35594 12.7954C8.366 8.40088 12.0297 4.26916 16.5083 4.68148ZM21.5791 11.3604C21.5791 9.85625 20.9816 8.4137 19.918 7.35011C18.8544 6.28651 17.4119 5.68898 15.9077 5.68898C14.4036 5.68898 12.961 6.28651 11.8974 7.35011C10.8338 8.4137 10.2363 9.85625 10.2363 11.3604C10.2363 12.8646 10.8338 14.3071 11.8974 15.3707C12.961 16.4343 14.4036 17.0318 15.9077 17.0318C17.4119 17.0318 18.8544 16.4343 19.918 15.3707C20.9816 14.3071 21.5791 12.8646 21.5791 11.3604ZM26.8619 24.8817C25.8259 21.2035 23.0571 18.3003 19.4261 17.1063C19.4067 17.0998 19.3882 17.1017 19.3704 17.1118C17.184 18.4014 14.5938 18.3838 12.439 17.1124C12.4297 17.1068 12.4192 17.1034 12.4084 17.1022C12.3975 17.1011 12.3865 17.1023 12.376 17.1057C8.74744 18.3209 5.98287 21.2059 4.94934 24.8945C4.9457 24.907 4.94812 24.9181 4.9566 24.9278C10.7709 31.6309 21.0379 31.6382 26.851 24.9296C26.8631 24.9154 26.8667 24.8995 26.8619 24.8817Z" fill="#F5F5F5"/>
</svg>
