<svg width="33" height="33" viewBox="0 0 33 33" fill="none" xmlns="http://www.w3.org/2000/svg">
<path d="M16.0932 1H16.531C24.9476 1.21131 31.6253 7.8091 31.8154 16.2627V16.7761C31.5981 25.154 24.9331 31.8692 16.4771 32H16.1465C7.70809 31.8426 1.06246 25.2103 0.81543 16.7985V16.2705C0.995859 7.85936 7.67721 1.17922 16.0932 1ZM16.9161 5.68148C22.7177 6.21611 25.1135 13.3619 20.8353 17.3095C20.8307 17.3137 20.8273 17.319 20.8254 17.3248C20.8235 17.3307 20.8231 17.3369 20.8242 17.343C20.8254 17.349 20.828 17.3547 20.832 17.3594C20.8359 17.3642 20.841 17.3678 20.8468 17.3701C24.2313 18.733 26.8421 21.4376 28.0373 24.8839C28.0388 24.8883 28.0414 24.8921 28.0449 24.895C28.0484 24.8979 28.0527 24.8997 28.0572 24.9003C28.0618 24.901 28.0665 24.9003 28.0708 24.8985C28.075 24.8967 28.0788 24.8937 28.0815 24.89C31.7585 19.692 31.6598 12.8296 27.8284 7.75945C24.8156 3.77244 19.9755 1.66662 15.0022 2.09529C9.85568 2.5391 5.25715 5.84678 3.13135 10.5513C1.01402 15.237 1.56803 20.6941 4.55238 24.8948C4.55488 24.8982 4.55824 24.9009 4.56212 24.9025C4.56599 24.9042 4.57022 24.9048 4.57435 24.9042C4.57847 24.9037 4.58233 24.902 4.58551 24.8994C4.58868 24.8967 4.59105 24.8933 4.59234 24.8894C5.82992 21.3964 8.35291 18.7814 11.7714 17.3761C11.7777 17.3735 11.7833 17.3693 11.7876 17.364C11.7919 17.3587 11.7949 17.3524 11.7961 17.3457C11.7974 17.3389 11.7969 17.332 11.7948 17.3255C11.7927 17.3189 11.7891 17.313 11.7841 17.3083C10.7415 16.3174 10.068 15.1464 9.76365 13.7954C8.77371 9.40088 12.4374 5.26916 16.9161 5.68148ZM21.9869 12.3604C21.9869 10.8563 21.3893 9.4137 20.3257 8.35011C19.2621 7.28651 17.8196 6.68898 16.3154 6.68898C14.8113 6.68898 13.3687 7.28651 12.3051 8.35011C11.2415 9.4137 10.644 10.8563 10.644 12.3604C10.644 13.8646 11.2415 15.3071 12.3051 16.3707C13.3687 17.4343 14.8113 18.0318 16.3154 18.0318C17.8196 18.0318 19.2621 17.4343 20.3257 16.3707C21.3893 15.3071 21.9869 13.8646 21.9869 12.3604ZM27.2696 25.8817C26.2336 22.2035 23.4648 19.3003 19.8338 18.1063C19.8144 18.0998 19.7959 18.1017 19.7781 18.1118C17.5918 19.4014 15.0016 19.3838 12.8467 18.1124C12.8374 18.1068 12.827 18.1034 12.8161 18.1022C12.8052 18.1011 12.7942 18.1023 12.7837 18.1057C9.15516 19.3209 6.39059 22.2059 5.35705 25.8945C5.35342 25.907 5.35584 25.9181 5.36432 25.9278C11.1786 32.6309 21.4456 32.6382 27.2587 25.9296C27.2708 25.9154 27.2744 25.8995 27.2696 25.8817Z" fill="#F5F5F5" stroke="#F5F5F5"/>
</svg>
