<svg width="19" height="18" viewBox="0 0 19 18" fill="none" xmlns="http://www.w3.org/2000/svg">
<path d="M4.6347 0H14.3674C16.6046 0.225 18.0646 1.31766 18.7475 3.27797C18.8689 3.62391 18.8793 4.02609 18.9474 4.40297V13.6491C18.7549 16.0805 16.872 17.858 14.3127 18H4.57993C2.33882 17.775 0.877303 16.6791 0.195395 14.7122C0.0799342 14.3775 0.0636513 13.9964 0 13.6322V4.38609C0.159868 1.94063 2.05905 0.154687 4.6347 0ZM17.3658 4.53277C17.3672 3.735 17.0351 2.96936 16.4423 2.40428C15.8496 1.83919 15.0448 1.52095 14.205 1.51955L4.76985 1.50391C3.9301 1.50252 3.12417 1.8181 2.52934 2.38121C1.93451 2.94433 1.59951 3.70886 1.59805 4.50662L1.58159 13.4672C1.58012 14.265 1.9123 15.0306 2.50506 15.5957C3.09781 16.1608 3.90259 16.4791 4.74233 16.4804L14.1775 16.4961C15.0173 16.4975 15.8232 16.1819 16.418 15.6188C17.0129 15.0557 17.3479 14.2911 17.3493 13.4934L17.3658 4.53277Z" fill="#F5F5F5"/>
<path d="M14.6029 5.22428C15.2422 5.22428 15.7604 4.73193 15.7604 4.12459C15.7604 3.51725 15.2422 3.0249 14.6029 3.0249C13.9636 3.0249 13.4453 3.51725 13.4453 4.12459C13.4453 4.73193 13.9636 5.22428 14.6029 5.22428Z" fill="#F5F5F5"/>
<path d="M14.19 9.00009C14.19 10.1883 13.6932 11.3279 12.8087 12.1681C11.9243 13.0084 10.7247 13.4804 9.47393 13.4804C8.22314 13.4804 7.02358 13.0084 6.13913 12.1681C5.25469 11.3279 4.75781 10.1883 4.75781 9.00009C4.75781 7.81184 5.25469 6.67225 6.13913 5.83203C7.02358 4.99181 8.22314 4.51978 9.47393 4.51978C10.7247 4.51978 11.9243 4.99181 12.8087 5.83203C13.6932 6.67225 14.19 7.81184 14.19 9.00009ZM12.618 9.00149C12.618 8.20933 12.2868 7.4496 11.6971 6.88945C11.1075 6.32931 10.3078 6.01462 9.47393 6.01462C8.64007 6.01462 7.84036 6.32931 7.25073 6.88945C6.6611 7.4496 6.32985 8.20933 6.32985 9.00149C6.32985 9.79366 6.6611 10.5534 7.25073 11.1135C7.84036 11.6737 8.64007 11.9884 9.47393 11.9884C10.3078 11.9884 11.1075 11.6737 11.6971 11.1135C12.2868 10.5534 12.618 9.79366 12.618 9.00149Z" fill="#F5F5F5"/>
</svg>
