<svg width="242" height="59" viewBox="0 0 242 59" fill="none" xmlns="http://www.w3.org/2000/svg">
<path d="M130.322 31.9541C130.332 33.3915 130.066 34.8168 129.54 36.1486C129.013 37.4805 128.237 38.6927 127.254 39.7162C126.271 40.7397 125.102 41.5544 123.813 42.1137C122.524 42.6731 121.14 42.9661 119.741 42.9761L117.114 42.995C115.714 43.005 114.327 42.7318 113.03 42.191C111.733 41.6502 110.553 40.8524 109.557 39.8431C108.56 38.8338 107.767 37.6328 107.223 36.3087C106.678 34.9845 106.393 33.5632 106.383 32.1258L106.355 28.0411C106.345 26.6037 106.611 25.1784 107.138 23.8466C107.664 22.5148 108.441 21.3025 109.424 20.279C110.406 19.2555 111.576 18.4409 112.865 17.8815C114.154 17.3222 115.538 17.0291 116.937 17.0191L119.564 17.0003C120.963 16.9902 122.351 17.2634 123.648 17.8042C124.944 18.345 126.125 19.1428 127.121 20.1521C128.117 21.1614 128.911 22.3624 129.455 23.6866C130 25.0107 130.285 26.4321 130.295 27.8695L130.322 31.9541ZM113.853 25.9571C112.953 29.0597 112.668 36.6073 117.31 37.2598C120.393 37.6925 122.27 36.3932 122.941 33.3619C123.785 29.566 123.639 21.8281 117.823 22.5792C115.752 22.8465 114.428 23.9725 113.853 25.9571Z" fill="#F5F5F5"/>
<path d="M93.0665 26.4956L97.4073 17.1663C97.4581 17.0554 97.5435 17 97.6636 17H104.828C104.852 17.0004 104.876 17.007 104.897 17.019C104.918 17.031 104.936 17.0481 104.948 17.0686C104.961 17.0892 104.968 17.1124 104.968 17.1362C104.969 17.16 104.964 17.1834 104.952 17.2044C102.248 22.2114 99.5493 27.2115 96.8564 32.2047C96.6232 32.6366 96.5077 33.0973 96.51 33.5869C96.5331 36.6563 96.5354 39.7129 96.5169 42.7569C96.5146 42.8862 96.45 42.9509 96.3229 42.9509L89.623 42.9959C89.4983 42.9959 89.4348 42.9335 89.4325 42.8088C89.4094 39.788 89.4059 36.7764 89.4221 33.774C89.4244 33.2798 89.3113 32.8179 89.0826 32.3883C86.3851 27.3443 83.7038 22.313 81.0386 17.2945C80.9577 17.1443 81.0039 17.0681 81.1772 17.0658L88.3447 17.0485C88.4579 17.0462 88.5376 17.097 88.5838 17.2009L92.9072 26.4956C92.9138 26.5112 92.9249 26.5245 92.9391 26.5339C92.9533 26.5432 92.9699 26.5482 92.9868 26.5482C93.0038 26.5482 93.0204 26.5432 93.0346 26.5339C93.0488 26.5245 93.0599 26.5112 93.0665 26.4956Z" fill="#F5F5F5"/>
<path d="M136.276 17.3911C136.276 17.3708 136.284 17.3513 136.299 17.3369C136.313 17.3225 136.332 17.3144 136.353 17.3144H146.295C147.866 17.3144 149.422 17.6138 150.874 18.1955C152.326 18.7772 153.645 19.6299 154.756 20.7047C155.867 21.7796 156.748 23.0556 157.35 24.4599C157.951 25.8643 158.261 27.3695 158.261 28.8896V31.7345C158.261 34.8044 157 37.7486 154.756 39.9194C152.512 42.0901 149.469 43.3097 146.295 43.3097H136.353C136.332 43.3097 136.313 43.3016 136.299 43.2872C136.284 43.2728 136.276 43.2533 136.276 43.233V17.3911ZM143.267 23.2589L143.316 37.2815C143.316 37.3666 143.349 37.4482 143.409 37.5083C143.469 37.5685 143.55 37.6023 143.634 37.6023L145.439 37.5953C146.171 37.5927 146.894 37.4391 147.568 37.1433C148.243 36.8475 148.855 36.4153 149.37 35.8714C149.885 35.3275 150.293 34.6825 150.57 33.9733C150.847 33.2641 150.988 32.5045 150.986 31.738L150.975 28.7466C150.97 27.1995 150.378 25.7178 149.331 24.6274C148.284 23.5369 146.867 22.9268 145.391 22.9312L143.586 22.9381C143.501 22.9381 143.42 22.9719 143.361 23.0321C143.301 23.0922 143.267 23.1738 143.267 23.2589Z" fill="#F5F5F5"/>
<path d="M170.053 34.0027V43.167C170.053 43.2713 170 43.3234 169.894 43.3234L163.201 43.2435C163.092 43.2435 163.038 43.189 163.038 43.0801V17.5471C163.038 17.422 163.1 17.3595 163.225 17.3595C166.523 17.3664 169.812 17.3884 173.091 17.4255C176.587 17.4637 180.408 18.7357 181.665 22.277C183.148 26.4439 181.399 29.5438 177.924 31.8688C177.898 31.8863 177.876 31.9087 177.859 31.9348C177.842 31.9609 177.83 31.9901 177.824 32.0208C177.818 32.0515 177.819 32.0831 177.825 32.1137C177.832 32.1443 177.844 32.1732 177.862 32.199L185.175 43.1184C185.19 43.1416 185.199 43.1685 185.2 43.1963C185.201 43.224 185.195 43.2516 185.183 43.2759C185.17 43.3002 185.151 43.3204 185.127 43.3343C185.104 43.3482 185.077 43.3552 185.05 43.3547H177.682C177.595 43.3546 177.51 43.3318 177.435 43.2885C177.359 43.2453 177.296 43.183 177.252 43.1079L171.983 34.02C171.95 33.9637 171.903 33.9168 171.848 33.884C171.792 33.8511 171.729 33.8333 171.664 33.8324L170.261 33.7976C170.123 33.7953 170.053 33.8636 170.053 34.0027ZM170.057 22.84L170.064 28.324C170.064 28.3858 170.088 28.445 170.132 28.4887C170.175 28.5323 170.234 28.5569 170.296 28.5569L171.9 28.5534C172.741 28.5522 173.548 28.2609 174.142 27.7434C174.737 27.226 175.07 26.5248 175.069 25.794V25.3561C175.069 24.9941 174.987 24.6358 174.827 24.3015C174.667 23.9673 174.433 23.6637 174.138 23.4081C173.843 23.1525 173.493 22.9499 173.108 22.8119C172.722 22.6739 172.31 22.6031 171.893 22.6037L170.289 22.6072C170.258 22.6072 170.228 22.6132 170.2 22.6249C170.172 22.6366 170.146 22.6537 170.125 22.6754C170.103 22.697 170.086 22.7227 170.074 22.7509C170.063 22.7792 170.057 22.8094 170.057 22.84Z" fill="#F5F5F5"/>
<path d="M194.479 17.6092H187.751C187.673 17.6092 187.609 17.673 187.609 17.7516V43.462C187.609 43.5407 187.673 43.6044 187.751 43.6044H194.479C194.557 43.6044 194.621 43.5407 194.621 43.462V17.7516C194.621 17.673 194.557 17.6092 194.479 17.6092Z" fill="#F5F5F5"/>
<path d="M210.179 35.9211C211.627 29.7328 213.252 23.5918 215.054 17.4983C215.081 17.4104 215.14 17.3665 215.23 17.3665L222.477 17.3006C222.764 17.2983 222.862 17.4324 222.772 17.7029L214.427 43.1536C214.394 43.2484 214.327 43.2958 214.226 43.2958L206.188 43.2923C206.166 43.2925 206.143 43.2853 206.125 43.2716C206.106 43.2578 206.092 43.2384 206.085 43.216L197.705 17.5156C197.7 17.5002 197.698 17.4839 197.701 17.4679C197.704 17.452 197.71 17.4368 197.719 17.4237C197.729 17.4106 197.741 17.3998 197.755 17.3923C197.77 17.3848 197.785 17.3807 197.802 17.3803L205.336 17.3387C205.392 17.3389 205.446 17.357 205.49 17.3902C205.534 17.4235 205.565 17.47 205.579 17.5226C206.865 22.298 208.15 27.1127 209.435 31.9667C209.732 33.0882 209.944 34.4041 210.068 35.9142C210.087 36.15 210.124 36.1524 210.179 35.9211Z" fill="#F5F5F5"/>
<path d="M233.114 37.9272H241.3C241.329 37.9272 241.356 37.9386 241.376 37.9589C241.396 37.9791 241.408 38.0066 241.408 38.0353V43.4964C241.408 43.525 241.396 43.5525 241.376 43.5728C241.356 43.593 241.329 43.6044 241.3 43.6044L226.096 43.5835C226.067 43.5835 226.04 43.5721 226.02 43.5519C226 43.5316 225.988 43.5041 225.988 43.4755L225.995 17.7172C225.995 17.6886 226.007 17.6611 226.027 17.6408C226.047 17.6206 226.074 17.6092 226.103 17.6092L241.3 17.6371C241.329 17.6371 241.356 17.6485 241.376 17.6687C241.396 17.689 241.408 17.7165 241.408 17.7451V23.0947C241.408 23.1234 241.396 23.1508 241.376 23.1711C241.356 23.1914 241.329 23.2028 241.3 23.2028H233.114C233.086 23.2028 233.058 23.2141 233.038 23.2344C233.018 23.2547 233.007 23.2821 233.007 23.3108V27.2838C233.007 27.3124 233.018 27.3399 233.038 27.3602C233.058 27.3804 233.086 27.3918 233.114 27.3918L240.694 27.3744C240.708 27.3744 240.722 27.3772 240.735 27.3826C240.748 27.388 240.76 27.396 240.77 27.406C240.78 27.4161 240.788 27.428 240.793 27.4411C240.799 27.4542 240.801 27.4682 240.801 27.4824V32.8529C240.801 32.8816 240.79 32.9091 240.77 32.9293C240.75 32.9496 240.723 32.961 240.694 32.961H233.114C233.086 32.961 233.058 32.9724 233.038 32.9926C233.018 33.0129 233.007 33.0404 233.007 33.069V37.8192C233.007 37.8478 233.018 37.8753 233.038 37.8956C233.058 37.9158 233.086 37.9272 233.114 37.9272Z" fill="#F5F5F5"/>
<path d="M56 29.5C56 22.4718 53.208 15.7314 48.2383 10.7617C43.2686 5.79196 36.5282 3 29.5 3C22.4718 3 15.7314 5.79196 10.7617 10.7617C5.79195 15.7314 3 22.4718 3 29.5C3 36.5282 5.79195 43.2686 10.7617 48.2383C15.7314 53.208 22.4718 56 29.5 56C36.5282 56 43.2686 53.208 48.2383 48.2383C53.208 43.2686 56 36.5282 56 29.5Z" stroke="#F5F5F5" stroke-width="6"/>
<path d="M34.8543 26.1127C34.7768 26.1158 34.6997 26.0949 34.6328 26.0525C34.4001 25.9066 34.1076 25.7079 33.7792 25.4848C32.531 24.637 30.7638 23.4367 29.7889 23.4405L34.8543 26.1127ZM34.8543 26.1127C36.1696 26.0677 37.2152 26.0854 37.991 26.1656M34.8543 26.1127L37.991 26.1656M29.7864 22.9405L29.787 22.9405C30.2047 22.9389 30.6716 23.0945 31.1123 23.2917C31.5658 23.4945 32.0492 23.7683 32.5162 24.0565C32.9847 24.3455 33.4473 24.6557 33.8583 24.9343C33.9283 24.9816 33.9964 25.0279 34.0627 25.073C34.3782 25.2872 34.6516 25.4729 34.8713 25.6118C36.1804 25.568 37.2404 25.5853 38.0422 25.6682C38.0423 25.6683 38.0424 25.6683 38.0425 25.6683L37.991 26.1656M29.7864 22.9405L41.2537 32.5331C42.6063 32.3694 42.8675 30.7877 42.5643 29.7213C42.1189 28.1637 39.3483 26.3052 37.991 26.1656M29.7864 22.9405C28.1856 22.9485 26.5855 22.9469 24.9862 22.9357L29.7864 22.9405ZM15.8209 29.4042C15.8127 30.3685 15.9136 31.3089 16.3685 32.005C16.8198 32.6955 17.5531 33.056 18.5704 33.0818C19.0967 34.6058 20.3552 35.428 21.6488 35.4353C22.9474 35.4425 24.1966 34.6279 24.6942 33.0788H34.9108C35.3621 34.5804 36.5667 35.4007 37.8393 35.4336C39.1532 35.4676 40.464 34.6613 41.0187 33.0916C41.1156 33.0627 41.2144 33.042 41.3151 33.0293L17.9587 24.9951C17.3283 25.0383 16.8325 25.2445 16.473 25.6055C16.1209 25.9591 15.9496 26.4113 15.8648 26.8544C15.7804 27.296 15.7745 27.7688 15.7852 28.202C15.7897 28.3833 15.7966 28.5518 15.8032 28.7118C15.8134 28.9574 15.8227 29.183 15.8209 29.4042ZM15.8209 29.4042C15.8209 29.4042 15.821 29.4041 15.821 29.404L16.3209 29.4083M15.8209 29.4042C15.8209 29.4043 15.8209 29.4043 15.8209 29.4044L16.3209 29.4083M16.3209 29.4083C16.3227 29.178 16.3126 28.9287 16.3021 28.6712C16.2448 27.2658 16.1777 25.6181 17.9931 25.494L18.8288 32.7318L18.8256 32.5812M16.3209 29.4083C16.3046 31.3101 16.7454 32.6438 18.8256 32.5812M20.3578 25.0421C19.5347 24.9577 18.7349 24.9417 17.959 24.9951L20.3578 25.0421ZM20.3578 25.0421C20.3837 25.0445 20.4103 25.0416 20.4362 25.0332L20.5898 25.509L20.4362 25.0332C20.4622 25.0248 20.4876 25.0108 20.5105 24.9912C20.5108 24.991 20.511 24.9908 20.5112 24.9906L20.5171 24.9854C21.1804 24.4058 21.7814 23.8806 22.4667 23.513C23.175 23.133 23.9564 22.9279 24.9859 22.9357L20.3578 25.0421ZM18.8256 32.5812L18.8302 32.7315L18.9726 32.6919M18.8256 32.5812C18.9018 32.5796 18.9508 32.6165 18.9726 32.6919M18.9726 32.6919C19.7958 35.6578 23.5225 35.7083 24.2851 32.6919C24.3038 32.6165 24.3512 32.5788 24.4274 32.5788H35.2018C35.2687 32.5788 35.3091 32.6125 35.3231 32.6799L18.8302 32.733L18.9726 32.6919ZM39.7573 28.8639L39.7567 28.8633C39.0727 28.1678 38.2831 27.8924 37.3996 27.7937C36.7741 27.7237 36.1478 27.7433 35.4819 27.764C35.1631 27.774 34.8352 27.7842 34.494 27.785L34.4931 27.785C34.3212 27.7851 34.1556 27.7353 34.0134 27.6465L34.0119 27.6456C32.9253 26.9617 31.8458 26.2657 30.7732 25.5576M39.7573 28.8639L29.9995 25.1245M39.7573 28.8639C39.9072 29.0158 40.0707 29.1635 40.2179 29.2965C40.2724 29.3457 40.3247 29.3928 40.3732 29.4375C40.5648 29.6138 40.7163 29.7661 40.8283 29.9214C40.9362 30.0709 40.9993 30.2127 41.0213 30.3661C41.0415 30.5067 41.0315 30.6875 40.9516 30.929M39.7573 28.8639L40.9516 30.929M30.7732 25.5576C30.7731 25.5575 30.773 25.5574 30.7728 25.5574L31.0483 25.1401L30.7738 25.558C30.7736 25.5579 30.7734 25.5577 30.7732 25.5576ZM30.7732 25.5576C30.5248 25.3945 30.3292 25.2791 30.1824 25.2056C30.0471 25.1378 29.9921 25.1259 29.9924 25.1245C29.9924 25.1242 29.9949 25.1243 29.9995 25.1245M29.9995 25.1245C28.199 25.0559 26.3969 25.0432 24.5932 25.0863L24.5931 25.0863C24.0165 25.0998 23.5242 25.3316 23.026 25.6879C22.775 25.8674 22.5314 26.0718 22.2757 26.2905C22.2465 26.3154 22.2171 26.3406 22.1875 26.366C21.9633 26.558 21.7276 26.7599 21.4857 26.9449M29.9995 25.1245L21.4872 26.9437C21.4867 26.9441 21.4862 26.9445 21.4857 26.9449M21.4857 26.9449C21.3338 27.062 21.154 27.1263 20.9606 27.1301M21.4857 26.9449L20.9606 27.1301M20.9606 27.1301L20.9613 27.1301L20.9502 26.6302L20.9596 27.1301M20.9606 27.1301L20.9596 27.1301M20.9596 27.1301L17.9675 27.1968C17.9573 27.3299 17.9438 27.4767 17.9294 27.6334C17.8709 28.2699 17.7973 29.0689 17.8706 29.7727C17.9194 30.2408 18.0267 30.5633 18.1709 30.7395C18.2351 30.8179 18.3045 30.8651 18.387 30.8908C18.4523 30.9111 18.5441 30.9235 18.672 30.9099C19.3471 29.6047 20.4983 28.9028 21.6925 28.9156C22.8737 28.9282 23.989 29.6389 24.6212 30.9353H34.9818C35.58 29.6867 36.6465 28.9594 37.7976 28.8979C39.0168 28.8328 40.2141 29.5206 40.9249 30.8836M20.9596 27.1301L40.9251 30.884C40.925 30.8839 40.925 30.8837 40.9249 30.8836M40.9249 30.8836C40.935 30.9029 40.944 30.9178 40.9516 30.929M40.9249 30.8836L40.9516 30.929M22.365 31.3748C22.5648 31.581 22.6797 31.864 22.6797 32.1623C22.6797 32.4606 22.5648 32.7436 22.365 32.9498C22.1657 33.1555 21.8989 33.268 21.6242 33.268C21.3494 33.268 21.0826 33.1555 20.8834 32.9498C20.6836 32.7436 20.5687 32.4606 20.5687 32.1623C20.5687 31.864 20.6836 31.581 20.8834 31.3748C21.0826 31.1691 21.3494 31.0566 21.6242 31.0566C21.8989 31.0566 22.1657 31.1691 22.365 31.3748ZM38.7038 31.3796C38.9036 31.5859 39.0186 31.8689 39.0186 32.1671C39.0186 32.4654 38.9036 32.7484 38.7038 32.9546C38.5046 33.1603 38.2378 33.2728 37.963 33.2728C37.8267 33.2728 37.6912 33.2451 37.5643 33.1909C37.4374 33.1366 37.321 33.0566 37.2222 32.9546C37.1234 32.8526 37.0442 32.7307 36.9899 32.5954C36.9356 32.4601 36.9075 32.3145 36.9075 32.1671C36.9075 32.0198 36.9356 31.8742 36.9899 31.7389C37.0442 31.6036 37.1234 31.4816 37.2222 31.3796C37.321 31.2777 37.4374 31.1977 37.5643 31.1434C37.6912 31.0891 37.8267 31.0614 37.963 31.0614C38.2378 31.0614 38.5046 31.1739 38.7038 31.3796Z" fill="#F5F5F5" stroke="#F5F5F5"/>
<rect x="17.0156" y="25.7097" width="22.0312" height="5.30645" fill="#F5F5F5"/>
<rect x="38.3125" y="27.9839" width="2.20312" height="1.51613" fill="#F5F5F5"/>
</svg>
