<svg width="32" height="40" viewBox="0 0 32 40" fill="none" xmlns="http://www.w3.org/2000/svg">
<path d="M16.0002 22.8571C14.644 22.8571 13.3182 22.4549 12.1906 21.7015C11.0629 20.948 10.184 19.8771 9.66504 18.6241C9.14604 17.3711 9.01024 15.9924 9.27483 14.6622C9.53941 13.3321 10.1925 12.1102 11.1515 11.1512C12.1105 10.1922 13.3323 9.53917 14.6624 9.27458C15.9926 9.01 17.3713 9.14579 18.6243 9.66479C19.8773 10.1838 20.9482 11.0627 21.7017 12.1903C22.4552 13.318 22.8574 14.6438 22.8574 16C22.8552 17.8179 22.132 19.5608 20.8465 20.8463C19.561 22.1318 17.8182 22.8549 16.0002 22.8571ZM16.0002 11.8857C15.1865 11.8857 14.391 12.127 13.7144 12.5791C13.0378 13.0311 12.5105 13.6737 12.1991 14.4255C11.8877 15.1773 11.8062 16.0045 11.965 16.8026C12.1237 17.6007 12.5156 18.3338 13.091 18.9092C13.6664 19.4846 14.3995 19.8764 15.1976 20.0352C15.9956 20.1939 16.8229 20.1125 17.5747 19.8011C18.3265 19.4897 18.969 18.9623 19.4211 18.2857C19.8732 17.6092 20.1145 16.8137 20.1145 16C20.1134 14.9091 19.6796 13.8633 18.9082 13.0919C18.1369 12.3206 17.0911 11.8868 16.0002 11.8857Z" fill="#F5F5F5"/>
<path d="M16 40L3.72947 25.7871C3.55897 25.5737 3.39024 25.359 3.22329 25.1429C1.12726 22.4311 -0.00506354 19.1189 1.70224e-05 15.7143C1.70224e-05 11.5466 1.68573 7.54961 4.6863 4.60261C7.68688 1.65561 11.7565 0 16 0C20.2435 0 24.3131 1.65561 27.3137 4.60261C30.3143 7.54961 32 11.5466 32 15.7143C32.0051 19.1173 30.8733 22.4281 28.7782 25.1386L28.7767 25.1429C28.7767 25.1429 28.3403 25.7057 28.2749 25.7814L16 40ZM5.54474 23.4214C5.54765 23.4214 5.8851 23.8614 5.96219 23.9557L16 35.5829L26.0509 23.94C26.1149 23.8614 26.4553 23.4186 26.4567 23.4171C28.1689 21.2016 29.0943 18.4958 29.0909 15.7143C29.0909 12.3044 27.7117 9.03409 25.2567 6.62291C22.8016 4.21173 19.4719 2.85714 16 2.85714C12.5281 2.85714 9.19836 4.21173 6.74334 6.62291C4.28832 9.03409 2.9091 12.3044 2.9091 15.7143C2.90605 18.4975 3.83096 21.2049 5.54474 23.4214Z" fill="#F5F5F5"/>
</svg>
