<svg width="32" height="25" viewBox="0 0 32 25" fill="none" xmlns="http://www.w3.org/2000/svg">
<path d="M31 11.7271V11.8464C30.8752 12.3332 30.3625 12.56 29.6166 12.56C20.5389 12.56 11.4611 12.56 2.3834 12.56C1.63457 12.56 1.11895 12.3317 1 11.842V11.7227C1.13008 11.1967 1.68086 10.9996 2.46191 11C11.4873 11.0002 20.5125 11.0002 29.5375 11C30.3221 11 30.8729 11.1978 31 11.7271Z" fill="#F5F5F5" stroke="#F5F5F5"/>
<path d="M31 1.47394V1.59323C30.8752 2.07995 30.3625 2.3068 29.6166 2.3068C20.5389 2.3068 11.4611 2.3068 2.3834 2.3068C1.63457 2.3068 1.11895 2.07849 1 1.58883V1.46953C1.13008 0.94354 1.68086 0.746429 2.46191 0.746796C11.4873 0.747041 20.5125 0.747041 29.5375 0.746796C30.3221 0.746796 30.8729 0.944641 31 1.47394Z" fill="#F5F5F5" stroke="#F5F5F5"/>
<path d="M31 22.9072V23.0094C30.9113 23.3621 30.6408 23.5896 30.1885 23.6919C30.0143 23.7313 29.6924 23.751 29.2229 23.751C20.3752 23.7505 11.5275 23.7505 2.67988 23.751C2.27598 23.751 1.98984 23.7322 1.82148 23.6945C1.36289 23.5924 1.08906 23.3657 1 23.0142V22.9027C1.0832 22.548 1.35898 22.3187 1.82734 22.2146C1.98789 22.1789 2.24062 22.161 2.58555 22.161C11.5391 22.1615 20.4926 22.1617 29.4461 22.1614C29.7715 22.1614 30.0129 22.1789 30.1703 22.2138C30.643 22.3192 30.9195 22.5503 31 22.9072Z" fill="#F5F5F5" stroke="#F5F5F5"/>
</svg>
