<svg width="31" height="25" viewBox="0 0 31 25" fill="none" xmlns="http://www.w3.org/2000/svg">
<path d="M30.4077 11.725V11.8443C30.2829 12.331 29.7702 12.5579 29.0243 12.5579C19.9466 12.5579 10.8688 12.5579 1.79111 12.5579C1.04229 12.5579 0.52666 12.3296 0.407715 11.8399V11.7206C0.537793 11.1946 1.08857 10.9975 1.86963 10.9979C10.895 10.9981 19.9202 10.9981 28.9452 10.9979C29.7298 10.9979 30.2806 11.1957 30.4077 11.725Z" fill="#F5F5F5"/>
<path d="M30.4077 11.725V11.8443C30.2829 12.331 29.7702 12.5579 29.0243 12.5579C19.9466 12.5579 10.8688 12.5579 1.79111 12.5579C1.04229 12.5579 0.52666 12.3296 0.407715 11.8399V11.7206C0.537793 11.1946 1.08857 10.9975 1.86963 10.9979C10.895 10.9981 19.9202 10.9981 28.9452 10.9979C29.7298 10.9979 30.2806 11.1957 30.4077 11.725Z" fill="#F5F5F5"/>
<path d="M30.4077 1.72501V1.8443C30.2829 2.33102 29.7702 2.55786 29.0243 2.55786C19.9466 2.55786 10.8688 2.55786 1.79111 2.55786C1.04229 2.55786 0.52666 2.32955 0.407715 1.8399V1.7206C0.537793 1.19461 1.08857 0.997497 1.86963 0.997864C10.895 0.998109 19.9202 0.998109 28.9452 0.997864C29.7298 0.997864 30.2806 1.19571 30.4077 1.72501Z" fill="#F5F5F5"/>
<path d="M30.4077 23.1582V23.2605C30.319 23.6131 30.0485 23.8406 29.5962 23.943C29.422 23.9824 29.1001 24.0021 28.6306 24.0021C19.7829 24.0016 10.9353 24.0016 2.0876 24.0021C1.68369 24.0021 1.39756 23.9833 1.2292 23.9456C0.770605 23.8435 0.496777 23.6167 0.407715 23.2653V23.1538C0.490918 22.7991 0.766699 22.5697 1.23506 22.4656C1.39561 22.43 1.64834 22.4121 1.99326 22.4121C10.9468 22.4126 19.9003 22.4127 28.8538 22.4125C29.1792 22.4125 29.4206 22.43 29.578 22.4649C30.0507 22.5702 30.3272 22.8013 30.4077 23.1582Z" fill="#F5F5F5"/>
</svg>
