<svg width="100" height="100" viewBox="0 0 100 100" fill="none" xmlns="http://www.w3.org/2000/svg">
<path d="M49.8578 0H50.1604C50.8905 0.148438 51.2259 0.527344 51.4652 1.22266C52.316 3.70703 53.1579 6.1888 53.9909 8.66797C53.9987 8.69116 54.0139 8.7114 54.0345 8.72579C54.0551 8.74018 54.0799 8.74797 54.1054 8.74805C56.9781 8.74023 59.7669 8.74089 62.4719 8.75C64.29 8.75586 64.4985 10.5488 63.1549 11.4824C60.9994 12.9785 58.8262 14.4798 56.6352 15.9863C56.5977 16.0118 56.5698 16.0479 56.5554 16.0894C56.5411 16.1309 56.5411 16.1755 56.5554 16.2168C57.4362 18.7676 58.3163 21.3379 59.1956 23.9277C59.6047 25.1348 58.0565 26.1699 56.8785 25.3555C54.614 23.7917 52.3637 22.2337 50.1277 20.6816C50.0879 20.6544 50.0399 20.64 49.9908 20.6403C49.9416 20.6407 49.8936 20.6558 49.8537 20.6836C47.6518 22.2331 45.4288 23.7812 43.1846 25.3281C42.6263 25.7129 42.0578 25.8047 41.4545 25.459C40.6406 24.9922 40.7039 24.2383 40.98 23.418C41.7981 21 42.6134 18.612 43.426 16.2539C43.4669 16.1354 43.4348 16.0397 43.3298 15.9668C41.1443 14.4538 39.0229 12.985 36.9655 11.5605C36.1066 10.9668 35.5503 10.2852 36.2088 9.33789C36.5197 8.89258 37.1025 8.74414 37.6936 8.74414C40.4149 8.73893 43.1424 8.73828 45.876 8.74219C45.9469 8.74219 45.9932 8.71029 46.015 8.64648C46.844 6.18294 47.6804 3.71094 48.5244 1.23047C48.7677 0.513672 49.1031 0.138672 49.8578 0ZM42.111 11.6836C43.336 12.4902 44.5283 13.3437 45.7328 14.1777C46.3627 14.6133 46.8678 15.1445 46.6245 15.8691C46.105 17.4134 45.5842 18.9368 45.062 20.4395C45.0571 20.453 45.0569 20.4677 45.0614 20.4813C45.066 20.495 45.075 20.5069 45.0872 20.5152C45.0994 20.5236 45.1141 20.528 45.1291 20.5277C45.1441 20.5274 45.1586 20.5225 45.1704 20.5137C46.4534 19.6022 47.7425 18.707 49.0377 17.8281C49.5346 17.4902 50.2177 17.3047 50.7024 17.6367C52.0917 18.5859 53.4564 19.5365 54.7967 20.4883C54.811 20.4982 54.8283 20.5035 54.846 20.5035C54.8637 20.5035 54.881 20.4981 54.8953 20.4881C54.9096 20.4781 54.9202 20.4641 54.9256 20.448C54.9311 20.4319 54.931 20.4145 54.9255 20.3984C54.4551 19.0352 53.9943 17.6934 53.543 16.373C53.3119 15.6895 53.2015 14.9199 53.8211 14.4922C55.1859 13.5482 56.5384 12.6165 57.8786 11.6973C58.0218 11.5983 58.0054 11.5508 57.8295 11.5547C56.2548 11.5846 54.6371 11.5859 52.9765 11.5586C52.1401 11.543 51.7454 11.0605 51.4836 10.3105C50.9928 8.89909 50.5211 7.49479 50.0684 6.09766C50.0634 6.0829 50.0536 6.06996 50.0404 6.06075C50.0273 6.05154 50.0115 6.04656 49.9954 6.04656C49.9793 6.04656 49.9637 6.05154 49.9511 6.06075C49.9385 6.06996 49.9294 6.0829 49.9253 6.09766C49.4712 7.52474 48.9913 8.95638 48.4855 10.3926C48.3035 10.9102 47.8883 11.498 47.3362 11.5215C45.6033 11.5931 43.8779 11.599 42.1601 11.5391C42.1425 11.5392 42.1253 11.5446 42.1112 11.5546C42.097 11.5645 42.0864 11.5784 42.081 11.5944C42.0755 11.6104 42.0755 11.6276 42.0809 11.6436C42.0863 11.6596 42.0968 11.6736 42.111 11.6836Z" fill="#F5F5F5"/>
<path d="M10.0847 19.6579C10.9137 17.1735 11.7542 14.6924 12.6063 12.2146C13.0112 11.0368 14.5266 10.4763 15.2813 11.6423C15.3508 11.7491 15.4947 12.1234 15.7128 12.7653C16.4981 15.0687 17.2752 17.365 18.0442 19.654C18.0579 19.695 18.0847 19.7308 18.1206 19.7564C18.1566 19.782 18.2 19.7961 18.2446 19.7966C20.955 19.8096 23.6825 19.7933 26.427 19.7478C28.0835 19.7204 28.7421 21.4568 27.3616 22.4021C26.245 23.1651 24.0131 24.7081 20.666 27.031C20.6101 27.07 20.5931 27.1221 20.6149 27.1872C21.452 29.6495 22.2891 32.1065 23.1262 34.5583C23.476 35.5818 23.1426 36.6403 21.8828 36.7048C21.345 36.7321 20.8501 36.3298 20.4001 36.0173C18.3169 34.5707 16.2547 33.1332 14.2137 31.7048C14.1183 31.6384 14.0229 31.6384 13.9274 31.7048C11.6669 33.2803 9.39143 34.8617 7.10093 36.4489C6.27881 37.0193 5.10902 36.5525 4.8861 35.6501C4.81521 35.3584 4.8677 34.9528 5.04357 34.4333C5.85343 32.0362 6.67624 29.6247 7.512 27.1989C7.52336 27.1668 7.52354 27.1319 7.51252 27.0993C7.50149 27.0667 7.47983 27.0379 7.45064 27.0173C5.13015 25.4222 2.80079 23.8109 0.462577 22.1833C-0.365683 21.6071 0.00856788 20.2556 0.87364 19.8982C1.10133 19.8031 1.48444 19.7549 2.02298 19.7536C4.1226 19.7484 6.22291 19.7478 8.3239 19.7517C8.69201 19.7517 9.39961 19.8493 9.94974 19.7693C10.0179 19.7588 10.0629 19.7217 10.0847 19.6579ZM6.60398 22.57C6.47718 22.57 6.3238 22.4958 6.18064 22.5388C6.1658 22.5439 6.15263 22.5527 6.14257 22.5643C6.13251 22.5759 6.12596 22.5898 6.12363 22.6046C6.12131 22.6193 6.1233 22.6343 6.12939 22.6478C6.13548 22.6614 6.14543 22.673 6.15815 22.6814C7.36202 23.503 8.56522 24.3344 9.76773 25.1755C10.4528 25.6521 10.9355 26.1657 10.6614 26.9626C10.1461 28.4717 9.63752 29.9659 9.1358 31.445C9.13081 31.4593 9.13075 31.4747 9.13562 31.489C9.14049 31.5033 9.15003 31.5157 9.16285 31.5245C9.17566 31.5332 9.19107 31.5378 9.20681 31.5376C9.22256 31.5373 9.23781 31.5323 9.25032 31.5232C10.5714 30.5844 11.8817 29.6703 13.181 28.781C13.8272 28.3376 14.4101 28.4294 15.0645 28.8689C16.3475 29.7308 17.6147 30.6137 18.8663 31.5173C18.8802 31.5271 18.8969 31.5325 18.9142 31.5326C18.9314 31.5328 18.9483 31.5277 18.9623 31.5182C18.9764 31.5087 18.9869 31.4951 18.9925 31.4796C18.998 31.464 18.9982 31.4471 18.9931 31.4314C18.5323 30.111 18.0749 28.7784 17.6209 27.4333C17.2814 26.4314 17.3284 25.8962 18.2099 25.281C19.4805 24.3956 20.7519 23.5186 22.0239 22.6501C22.032 22.6442 22.0379 22.6361 22.0409 22.6268C22.0439 22.6176 22.0438 22.6077 22.0406 22.5985C22.0375 22.5893 22.0315 22.5812 22.0234 22.5754C22.0152 22.5696 22.0054 22.5664 21.9953 22.5661C20.2161 22.5818 18.5452 22.5837 16.9828 22.572C16.2323 22.5661 15.8253 22.0759 15.5819 21.404C15.0652 19.9756 14.5846 18.5472 14.1401 17.1189C14.136 17.1052 14.1274 17.0932 14.1155 17.0846C14.1037 17.076 14.0893 17.0712 14.0744 17.071C14.0595 17.0707 14.045 17.0751 14.0329 17.0834C14.0208 17.0916 14.0118 17.1034 14.0072 17.1169C13.5518 18.462 13.0964 19.8057 12.6411 21.1482C12.3302 22.0603 11.9662 22.5837 10.9334 22.5876C9.49232 22.5928 8.04917 22.587 6.60398 22.57Z" fill="#F5F5F5"/>
<path d="M89.9209 19.4551C89.9321 19.4897 89.9548 19.52 89.9856 19.5418C90.0165 19.5635 90.054 19.5756 90.0927 19.5762C92.6927 19.5957 95.2961 19.5762 97.9029 19.5176C99.9623 19.4727 100.834 21.1348 98.9929 22.3867C96.8374 23.8542 94.6935 25.319 92.5611 26.7813C92.5277 26.8048 92.5028 26.8376 92.49 26.8751C92.4772 26.9126 92.477 26.9529 92.4896 26.9903C93.3089 29.3874 94.1324 31.7956 94.96 34.2149C95.1304 34.7136 95.1945 35.0886 95.1523 35.3399C94.96 36.5098 93.6123 36.7207 92.69 36.0821C90.4622 34.5417 88.2392 32.9955 86.0209 31.4434C85.965 31.4043 85.9085 31.4043 85.8512 31.4434C83.5416 33.0554 81.232 34.6628 78.9224 36.2656C77.6647 37.1387 76.3968 35.7129 76.8385 34.4238C77.6892 31.9317 78.5386 29.4492 79.3867 26.9766C79.3981 26.9438 79.3981 26.9082 79.3867 26.8752C79.3752 26.8422 79.353 26.8134 79.3233 26.793C77.0955 25.2643 74.8582 23.7364 72.6113 22.209C71.8873 21.7168 71.6808 21.1055 71.9916 20.375C72.2943 19.666 73.053 19.5469 73.8527 19.5391C76.4826 19.5104 79.0935 19.5241 81.6854 19.5801C81.7478 19.5819 81.8093 19.5641 81.8606 19.5292C81.9119 19.4943 81.9501 19.4443 81.9696 19.3867C82.834 16.8242 83.71 14.2344 84.5976 11.6172C84.892 10.75 86.2582 10.6094 86.8901 11.166C87.0973 11.3483 87.2868 11.6901 87.4586 12.1914C88.2971 14.6276 89.1179 17.0489 89.9209 19.4551ZM85.8512 16.8867C85.4367 18.2513 84.9902 19.5951 84.5117 20.918C84.1722 21.8594 83.8981 22.3301 82.8183 22.3516C81.2218 22.3841 79.6471 22.3711 78.0942 22.3125C78.0743 22.3122 78.0548 22.318 78.0385 22.329C78.0222 22.34 78.01 22.3556 78.0037 22.3736C77.9973 22.3917 77.9971 22.4112 78.0031 22.4293C78.009 22.4475 78.0209 22.4633 78.0369 22.4746C79.3676 23.3757 80.6764 24.2793 81.9635 25.1856C82.5688 25.6113 82.6977 26.1992 82.4686 26.9082C81.9982 28.36 81.5088 29.7962 81.0002 31.2168C80.9955 31.2313 80.9957 31.2468 81.0007 31.2612C81.0058 31.2756 81.0154 31.2881 81.0283 31.297C81.0412 31.3059 81.0567 31.3106 81.0726 31.3106C81.0885 31.3106 81.1039 31.3058 81.1168 31.2969C82.3711 30.4167 83.6282 29.5443 84.888 28.6797C85.4585 28.2871 86.1191 28.084 86.6958 28.4766C88.0551 29.4037 89.4056 30.3457 90.7471 31.3028C90.761 31.3126 90.7777 31.3179 90.795 31.3181C90.8122 31.3182 90.8291 31.3132 90.8431 31.3037C90.8572 31.2941 90.8678 31.2806 90.8733 31.265C90.8788 31.2494 90.879 31.2325 90.8739 31.2168C90.3627 29.7637 89.8609 28.293 89.3687 26.8047C89.0988 25.9864 89.4219 25.5235 90.1336 25.0274C91.3552 24.1771 92.5918 23.3242 93.8434 22.4688C93.8564 22.4598 93.8661 22.4471 93.8711 22.4325C93.876 22.4179 93.876 22.4022 93.871 22.3876C93.866 22.3731 93.8563 22.3604 93.8432 22.3514C93.8302 22.3425 93.8145 22.3378 93.7984 22.3379C92.33 22.3705 90.8473 22.377 89.3503 22.3574C88.5241 22.3477 87.7879 22.2051 87.5282 21.4356C87.0087 19.903 86.4934 18.3861 85.9821 16.8848C85.9771 16.8715 85.9679 16.8599 85.9557 16.8518C85.9435 16.8437 85.9291 16.8394 85.9144 16.8396C85.8998 16.8399 85.8858 16.8445 85.8744 16.853C85.863 16.8615 85.8549 16.8733 85.8512 16.8867Z" fill="#F5F5F5"/>
<path d="M50.6041 100H49.3729C44.3134 99.8815 39.5674 98.8672 35.135 96.957C14.8212 88.207 7.56111 64.3183 19.6087 46.4961C30.2432 30.7637 51.9395 26.2344 68.654 35.6894C88.3666 46.8418 92.2502 73.1348 76.4335 89.0391C69.5252 95.9857 60.9154 99.6393 50.6041 100ZM83.3193 65.3672C83.3193 56.9274 79.8088 48.8333 73.56 42.8654C67.3111 36.8976 58.8359 33.5449 49.9987 33.5449C41.1616 33.5449 32.6863 36.8976 26.4375 42.8654C20.1887 48.8333 16.6781 56.9274 16.6781 65.3672C16.6781 73.807 20.1887 81.9011 26.4375 87.8689C32.6863 93.8368 41.1616 97.1894 49.9987 97.1894C58.8359 97.1894 67.3111 93.8368 73.56 87.8689C79.8088 81.9011 83.3193 73.807 83.3193 65.3672Z" fill="#F5F5F5"/>
<path d="M80.1292 65.3672C80.1292 72.9989 76.9548 80.318 71.3043 85.7145C65.6537 91.1109 57.99 94.1426 49.9989 94.1426C42.0079 94.1426 34.3441 91.1109 28.6936 85.7145C23.0431 80.318 19.8687 72.9989 19.8687 65.3672C19.8687 57.7355 23.0431 50.4163 28.6936 45.0199C34.3441 39.6235 42.0079 36.5918 49.9989 36.5918C57.99 36.5918 65.6537 39.6235 71.3043 45.0199C76.9548 50.4163 80.1292 57.7355 80.1292 65.3672ZM77.1966 65.3672C77.1966 58.4778 74.3309 51.8705 69.23 46.999C64.129 42.1274 57.2107 39.3906 49.9969 39.3906C42.7831 39.3906 35.8647 42.1274 30.7638 46.999C25.6629 51.8705 22.7972 58.4778 22.7972 65.3672C22.7972 72.2566 25.6629 78.8638 30.7638 83.7354C35.8647 88.6069 42.7831 91.3437 49.9969 91.3437C57.2107 91.3437 64.129 88.6069 69.23 83.7354C74.3309 78.8638 77.1966 72.2566 77.1966 65.3672Z" fill="#F5F5F5"/>
<path d="M41.4584 80.7265C39.7794 84.3535 34.6073 83.7734 33.4703 80.1035C33.3148 79.6009 33.2358 78.6569 33.233 77.2715C33.2208 71.209 33.2167 65.1458 33.2208 59.082C33.2221 57.9869 33.5241 57.026 34.1267 56.1992C36.0307 53.584 40.1291 53.9101 41.5606 56.7754C41.6002 56.8548 41.6663 56.8932 41.759 56.8906L43.4789 56.8476C43.5648 56.845 43.6241 56.806 43.6569 56.7304C44.8226 54.0547 45.9923 51.3828 47.1662 48.7148C48.0088 46.7988 48.8146 45.4922 50.8781 45.084C53.2954 44.6054 55.0275 45.7812 56.3569 47.584C58.4735 50.4511 56.999 53.7636 55.9969 56.6816C55.9737 56.7519 56.001 56.7871 56.0787 56.7871C58.6283 56.7871 61.1669 56.7864 63.6946 56.7851C66.5414 56.7851 69.02 58.6601 69.3984 61.373C69.4802 61.9577 69.3929 62.8567 69.1366 64.0703C68.3554 67.7643 67.5646 71.457 66.7643 75.1484C66.4753 76.4778 66.1678 77.4147 65.842 77.959C64.666 79.914 62.7948 80.5644 60.4654 80.5644C54.2402 80.567 47.9904 80.5677 41.7161 80.5664C41.6617 80.5664 41.6085 80.5816 41.5628 80.61C41.5171 80.6384 41.4808 80.6789 41.4584 80.7265ZM65.4555 60.0898C65.026 59.7786 64.6579 59.623 64.3511 59.623C61.1076 59.6204 57.8654 59.6178 54.6247 59.6152C52.9661 59.6133 52.0233 59.0468 52.6655 57.3203C53.6185 54.7636 55.8599 50.2031 52.8986 48.125C51.9231 47.4394 50.739 47.8086 50.2768 48.8574C48.9952 51.7688 47.7143 54.6829 46.4341 57.5996C45.5813 59.539 44.0577 59.6035 42.0944 59.6777C42.0003 59.6803 41.9533 59.7265 41.9533 59.8164L42.0126 77.6758C42.0126 77.7042 42.0245 77.7316 42.0456 77.7517C42.0666 77.7719 42.0953 77.7832 42.1251 77.7832C48.274 77.7845 54.4263 77.7838 60.582 77.7812C62.6864 77.7793 63.3695 77.0097 63.7969 75.0449C64.6531 71.1074 65.5004 67.1686 66.3389 63.2285C66.6273 61.8691 66.6007 60.9218 65.4555 60.0898ZM36.8978 80.1347C37.6402 80.7129 38.5482 80.1855 38.8836 79.4883C38.9981 79.2487 39.0554 78.8841 39.0554 78.3945C39.0554 71.8867 39.0547 65.3789 39.0534 58.8711C39.0534 56.5879 36.1964 56.7812 36.1943 58.7402C36.1889 65.3222 36.1896 71.9043 36.1964 78.4863C36.1964 79.2031 36.3477 79.7051 36.8978 80.1347Z" fill="#F5F5F5"/>
</svg>
