<svg width="100" height="100" viewBox="0 0 100 100" fill="none" xmlns="http://www.w3.org/2000/svg">
<path fill-rule="evenodd" clip-rule="evenodd" d="M51.6251 12.2134C45.2629 14.0451 42.0118 16.294 43.4985 17.8365C43.9737 18.3277 46.5815 18.0398 49.295 17.1973C56.7133 14.8929 59.665 15.2098 59.665 18.3066C59.665 19.7737 60.5148 20.9477 61.576 20.9477C62.6767 20.9477 63.4869 19.7539 63.4869 18.1323C63.4869 15.602 64.0118 15.3907 68.6745 16.0391C71.5269 16.4353 76.1641 18.3396 78.9783 20.2703C83.8117 23.5863 83.9798 23.9164 81.9899 26.1957C79.4968 29.0508 81.6447 31.3341 84.5073 28.8712C85.4971 28.0195 86.9138 27.7118 87.6539 28.1872C89.5904 29.4272 93.5613 38.0519 94.4671 42.9816C95.1257 46.5736 94.8416 47.2498 92.5205 47.6037C88.5788 48.2072 88.2451 51.0834 92.0045 52.0606C94.8263 52.7949 95.1282 53.4103 94.4581 57.0617C93.56 61.9558 89.5827 70.5791 87.6539 71.8139C86.9138 72.2893 85.4971 71.9816 84.5073 71.1298C81.6447 68.6669 79.4968 70.9502 81.9899 73.8053C83.9798 76.0847 83.8117 76.4148 78.9783 79.7308C76.1641 81.6615 71.5269 83.5657 68.6745 83.9619C64.0118 84.6103 63.4869 84.399 63.4869 81.8688C63.4869 80.2471 62.6767 79.0533 61.576 79.0533C60.5148 79.0533 59.665 80.2273 59.665 81.6945C59.665 84.9365 55.289 85.235 48.8237 82.434C45.733 81.0963 44.1788 80.9602 43.5737 81.9744C42.2628 84.1719 46.4936 86.6968 54.3042 88.3779C67.1037 91.1313 83.2397 84.9286 91.114 74.2266C109.223 49.6149 94.4008 14.1362 64.7609 11.1543C60.6536 10.741 55.2177 11.1794 51.6251 12.2134ZM23.9942 25.5698C23.9942 27.342 25.8147 27.5903 36.4153 27.268C52.4799 26.7794 52.2595 24.376 36.1032 23.8715C25.7867 23.5493 23.9942 23.8002 23.9942 25.5698ZM71.7664 36.796C67.9509 40.8463 65.8132 42.077 62.5913 42.077C56.9286 42.077 52.7869 46.3729 53.7309 51.2656C54.1157 53.2637 53.8392 55.5113 53.1156 56.2614C51.3996 58.0402 53.9373 59.8058 56.1604 58.3809C57.0369 57.8197 59.186 57.516 60.9377 57.7048C65.7902 58.2264 69.0159 55.0676 68.9522 49.8579C68.9089 46.3702 70.0478 44.1358 74.0952 39.7713C77.5705 36.0235 78.8713 33.7257 78.0177 32.8409C77.1629 31.9548 75.0901 33.2674 71.7664 36.796ZM12.1387 36.318C9.88256 38.6567 14.1376 39.4359 29.1652 39.4359C42.9698 39.4359 45.6515 39.1137 45.6515 37.455C45.6515 35.7977 42.9851 35.4741 29.3028 35.4741C20.3099 35.4741 12.5872 35.8545 12.1387 36.318ZM64.5316 49.6902C65.0539 53.4869 61.4524 55.0597 58.7198 52.2284C57.0292 50.4746 56.9732 49.7906 58.3834 48.0289C60.6753 45.1659 64.0335 46.0731 64.5316 49.6902ZM0.338061 48.8279C-1.40854 51.7569 3.31785 52.6008 21.4463 52.6008C39.5747 52.6008 44.3011 51.7569 42.5545 48.8279C41.3417 46.7942 1.55087 46.7942 0.338061 48.8279ZM12.1387 61.409C9.88256 63.7478 14.1376 64.5269 29.1652 64.5269C42.9698 64.5269 45.6515 64.2047 45.6515 62.5461C45.6515 60.8887 42.9851 60.5652 29.3028 60.5652C20.3099 60.5652 12.5872 60.9455 12.1387 61.409ZM23.9942 74.4313C23.9942 76.2035 25.8147 76.4518 36.4153 76.1296C52.4799 75.6409 52.2595 73.2375 36.1032 72.733C25.7867 72.4108 23.9942 72.6617 23.9942 74.4313Z" fill="#F5F5F5"/>
</svg>
