<svg width="100" height="77" viewBox="0 0 100 77" fill="none" xmlns="http://www.w3.org/2000/svg">
<path fill-rule="evenodd" clip-rule="evenodd" d="M52.1413 1.18229C45.7156 2.96694 42.4319 5.15818 43.9335 6.66105C44.4134 7.1397 47.0473 6.8592 49.788 6.03829C57.2804 3.793 60.2617 4.1018 60.2617 7.11911C60.2617 8.54863 61.1199 9.69251 62.1917 9.69251C63.3035 9.69251 64.1218 8.52934 64.1218 6.94927C64.1218 4.48395 64.6519 4.27808 69.3612 4.90985C72.2421 5.29586 76.9257 7.15128 79.7681 9.03243C84.6498 12.2633 84.8196 12.585 82.8098 14.8059C80.2917 17.5877 82.4611 19.8124 85.3523 17.4127C86.3521 16.5828 87.7829 16.283 88.5305 16.7462C90.4863 17.9544 94.4969 26.3578 95.4117 31.1611C96.077 34.6609 95.79 35.3197 93.4457 35.6645C89.4646 36.2525 89.1275 39.055 92.9246 40.0071C95.7746 40.7225 96.0795 41.3221 95.4027 44.8799C94.4956 49.6484 90.4785 58.0505 88.5305 59.2536C87.7829 59.7168 86.3521 59.417 85.3523 58.5871C82.4611 56.1874 80.2917 58.4121 82.8098 61.1939C84.8196 63.4147 84.6498 63.7364 79.7681 66.9673C76.9257 68.8485 72.2421 70.7039 69.3612 71.0899C64.6519 71.7217 64.1218 71.5158 64.1218 69.0505C64.1218 67.4704 63.3035 66.3072 62.1917 66.3072C61.1199 66.3072 60.2617 67.4511 60.2617 68.8806C60.2617 72.0395 55.8419 72.3303 49.3119 69.6012C46.1904 68.2978 44.6206 68.1652 44.0094 69.1534C42.6854 71.2945 46.9585 73.7546 54.8473 75.3926C67.7747 78.0754 84.0721 72.0318 92.0251 61.6044C110.316 37.6242 95.3448 3.05572 65.4085 0.150354C61.2602 -0.252383 55.7698 0.174801 52.1413 1.18229ZM24.2341 14.196C24.2341 15.9227 26.0728 16.1646 36.7795 15.8506C53.0047 15.3746 52.7821 13.0328 36.4642 12.5413C26.0445 12.2273 24.2341 12.4718 24.2341 14.196ZM72.4841 25.1342C68.6304 29.0805 66.4713 30.2797 63.2173 30.2797C57.4979 30.2797 53.3148 34.4653 54.2683 39.2325C54.6568 41.1793 54.3776 43.3693 53.6468 44.1001C51.9136 45.8333 54.4767 47.5536 56.722 46.1653C57.6072 45.6184 59.7779 45.3225 61.5471 45.5065C66.4482 46.0147 69.7061 42.9369 69.6417 37.8609C69.598 34.4627 70.7483 32.2857 74.8361 28.0331C78.3463 24.3815 79.66 22.1426 78.7979 21.2805C77.9345 20.4171 75.841 21.6961 72.4841 25.1342ZM12.2601 24.6684C9.98139 26.9471 14.279 27.7063 29.4569 27.7063C43.3995 27.7063 46.108 27.3923 46.108 25.7762C46.108 24.1614 43.415 23.8462 29.5958 23.8462C20.513 23.8462 12.713 24.2168 12.2601 24.6684ZM65.1769 37.6975C65.7044 41.3968 62.0669 42.9292 59.307 40.1705C57.5995 38.4618 57.5429 37.7953 58.9673 36.0788C61.2821 33.2893 64.6738 34.1732 65.1769 37.6975ZM0.341441 36.8573C-1.42262 39.7112 3.35103 40.5334 21.6607 40.5334C39.9705 40.5334 44.7441 39.7112 42.9801 36.8573C41.7551 34.8758 1.56638 34.8758 0.341441 36.8573ZM12.2601 49.1157C9.98139 51.3944 14.279 52.1536 29.4569 52.1536C43.3995 52.1536 46.108 51.8396 46.108 50.2235C46.108 48.6087 43.415 48.2935 29.5958 48.2935C20.513 48.2935 12.713 48.664 12.2601 49.1157ZM24.2341 61.8038C24.2341 63.5305 26.0728 63.7724 36.7795 63.4585C53.0047 62.9824 52.7821 60.6406 36.4642 60.1491C26.0445 59.8351 24.2341 60.0796 24.2341 61.8038Z" fill="#F5F5F5"/>
</svg>
