<svg width="92" height="92" viewBox="0 0 92 92" fill="none" xmlns="http://www.w3.org/2000/svg">
<path d="M45.2952 0H46.593C71.5464 0.627109 91.3443 20.2077 91.908 45.2956V46.8194C91.2636 71.6827 71.5033 91.6119 46.4333 92H45.4532C20.4352 91.5328 0.732392 71.8498 0 46.8859V45.319C0.534933 20.3568 20.3436 0.531875 45.2952 0ZM47.7347 13.8934C64.9352 15.4801 72.0383 36.6868 59.3543 48.4024C59.3408 48.4148 59.3308 48.4305 59.3251 48.4478C59.3193 48.4652 59.3181 48.4838 59.3215 48.5017C59.3249 48.5197 59.3329 48.5365 59.3446 48.5506C59.3563 48.5646 59.3713 48.5755 59.3884 48.5821C69.4228 52.6269 77.1632 60.6535 80.7067 70.8813C80.711 70.8942 80.7188 70.9055 80.7292 70.9141C80.7396 70.9227 80.7523 70.9282 80.7658 70.9301C80.7793 70.9319 80.7932 70.93 80.8059 70.9246C80.8186 70.9192 80.8296 70.9104 80.8377 70.8993C91.7393 55.4731 91.4467 35.1073 80.0874 20.0603C71.1551 8.22789 56.8052 1.97836 42.0605 3.25055C26.8023 4.56766 13.1687 14.384 6.86617 28.3457C0.588785 42.2517 2.23128 58.447 11.0792 70.9137C11.0866 70.9237 11.0966 70.9317 11.1081 70.9366C11.1196 70.9415 11.1321 70.9432 11.1443 70.9416C11.1566 70.9399 11.168 70.9349 11.1774 70.9271C11.1868 70.9194 11.1939 70.9091 11.1977 70.8975C14.8668 60.5313 22.3469 52.7706 32.4819 48.6001C32.5007 48.5923 32.5172 48.58 32.5301 48.5642C32.5429 48.5484 32.5515 48.5297 32.5553 48.5097C32.559 48.4897 32.5577 48.4691 32.5515 48.4497C32.5453 48.4304 32.5343 48.4129 32.5196 48.3988C29.4285 45.4579 27.4318 41.9828 26.5295 37.9734C23.5945 24.9316 34.4565 12.6698 47.7347 13.8934ZM62.7685 33.7148C62.7685 29.2508 60.997 24.9697 57.8436 21.8132C54.6903 18.6567 50.4135 16.8834 45.954 16.8834C41.4945 16.8834 37.2177 18.6567 34.0644 21.8132C30.911 24.9697 29.1395 29.2508 29.1395 33.7148C29.1395 38.1787 30.911 42.4598 34.0644 45.6163C37.2177 48.7728 41.4945 50.5461 45.954 50.5461C50.4135 50.5461 54.6903 48.7728 57.8436 45.6163C60.997 42.4598 62.7685 38.1787 62.7685 33.7148ZM78.4305 73.8426C75.3592 62.9266 67.1503 54.3105 56.3852 50.7671C56.3277 50.7479 56.2727 50.7533 56.22 50.7833C49.738 54.6106 42.0587 54.5585 35.67 50.7851C35.6424 50.7687 35.6115 50.7584 35.5793 50.755C35.5471 50.7516 35.5143 50.7551 35.4833 50.7653C24.7254 54.3716 16.5291 62.9338 13.4649 73.8803C13.4541 73.9174 13.4613 73.9504 13.4864 73.9791C30.7246 93.8723 61.1637 93.8939 78.3982 73.9845C78.4341 73.9426 78.4449 73.8953 78.4305 73.8426Z" fill="#F5F5F5"/>
</svg>
