<svg width="24" height="19" viewBox="0 0 24 19" fill="none" xmlns="http://www.w3.org/2000/svg">
<path d="M23.8076 7.54807V10.4506C23.6756 13.5665 23.9639 17.5383 19.7231 17.8248C14.6851 18.1643 9.64394 18.1824 4.59971 17.8791C-0.182277 17.5907 0.156237 14.059 0 10.4281V7.66604C0.180417 4.62497 -0.206456 0.465975 4.12727 0.228158C9.51127 -0.0677094 14.5338 -0.0758238 19.1949 0.203815C20.2414 0.266234 21.0015 0.414167 21.4752 0.647615C23.9806 1.87415 23.6681 5.22045 23.8076 7.54807ZM6.44108 16.5608C10.4623 16.6656 14.4259 16.7406 18.449 16.4934C20.3109 16.3773 21.4827 16.4952 22.0369 14.6395C22.1522 14.2525 22.2248 13.8574 22.2545 13.4542C22.4529 10.8176 22.4697 8.06053 22.3048 5.183C22.2229 3.7692 22.0034 2.26178 20.5768 1.7824C20.3586 1.70874 19.6624 1.63821 18.4881 1.5708C14.0651 1.31862 9.64394 1.318 5.22466 1.56892C2.70068 1.71124 1.72605 2.09886 1.54006 4.82159C1.33422 7.8352 1.33298 10.6478 1.53634 13.2594C1.56857 13.6602 1.62933 14.0571 1.71861 14.4504C2.2301 16.6862 4.40069 16.5084 6.44108 16.5608Z" fill="#F5F5F5"/>
<path d="M10.3675 5.08926L15.5084 7.92434C15.6658 8.01106 15.797 8.13892 15.8883 8.29444C15.9795 8.44996 16.0273 8.62738 16.0267 8.808C16.0262 8.98861 15.9772 9.16573 15.885 9.32066C15.7928 9.47559 15.6608 9.60261 15.5029 9.68831L10.3414 12.4878C10.1894 12.5702 10.0188 12.6114 9.84619 12.6074C9.6736 12.6034 9.505 12.5544 9.35689 12.4651C9.20877 12.3758 9.08623 12.2494 9.00124 12.0981C8.91626 11.9468 8.87175 11.7759 8.87207 11.6021L8.89067 5.96563C8.89126 5.79155 8.9368 5.62062 9.02284 5.46962C9.10887 5.31863 9.23243 5.19275 9.38138 5.10436C9.53034 5.01596 9.69957 4.96809 9.87245 4.96545C10.0453 4.9628 10.2159 5.00547 10.3675 5.08926ZM10.3786 6.69968C10.3684 6.69415 10.3569 6.69141 10.3453 6.69171C10.3337 6.69201 10.3224 6.69535 10.3124 6.70139C10.3025 6.70743 10.2943 6.71598 10.2886 6.72618C10.2829 6.73639 10.28 6.74791 10.2801 6.7596L10.2726 10.8268C10.2724 10.8388 10.2753 10.8506 10.281 10.8611C10.2868 10.8716 10.2952 10.8803 10.3054 10.8864C10.3157 10.8925 10.3273 10.8957 10.3392 10.8958C10.3511 10.8959 10.3628 10.8927 10.3731 10.8868L14.1004 8.85876C14.1109 8.85293 14.1196 8.84439 14.1257 8.83401C14.1318 8.82364 14.135 8.81182 14.135 8.79977C14.135 8.78773 14.1318 8.77591 14.1257 8.76554C14.1196 8.75516 14.1109 8.74662 14.1004 8.74079L10.3786 6.69968Z" fill="#F5F5F5"/>
</svg>
