<svg width="101" height="100" viewBox="0 0 101 100" fill="none" xmlns="http://www.w3.org/2000/svg">
<path d="M41.3617 10.4269C40.8185 10.124 40.6407 9.37763 40.8302 8.8071C41.0881 8.03728 41.6411 7.8712 42.4519 7.78718C45.3423 7.49019 47.2702 6.0033 48.2354 3.3265C48.6418 2.19912 48.208 0.149509 49.8883 0.00882999C51.7601 -0.149433 51.3498 1.85719 51.7113 3.02365C52.5593 5.75646 54.3959 7.32802 57.2212 7.73833C57.9832 7.84775 58.4268 7.93242 58.5518 7.99234C59.3861 8.38897 59.5541 9.78208 58.7941 10.3702C58.1356 10.8802 57.0161 10.7258 56.1954 10.9739C53.6749 11.7399 51.8422 13.7211 51.5706 16.394C51.5081 17.0114 51.4475 17.4113 51.3889 17.5936C50.9063 19.1255 48.716 18.7191 48.5636 16.9782C48.2966 13.9601 46.7615 11.9672 43.9584 10.9993C43.1221 10.7102 42.1764 10.8821 41.3617 10.4269ZM47.3092 9.35027C48.363 10.0589 49.2423 10.942 49.947 11.9997C49.9551 12.0114 49.9659 12.021 49.9784 12.0276C49.991 12.0342 50.005 12.0376 50.0193 12.0376C50.0335 12.0376 50.0475 12.0342 50.0601 12.0276C50.0727 12.021 50.0835 12.0114 50.0915 11.9997C50.7897 10.9407 51.6664 10.0595 52.7214 9.35614C52.7364 9.34613 52.7486 9.33261 52.757 9.31676C52.7655 9.30092 52.7699 9.28324 52.7699 9.26528C52.7699 9.24732 52.7655 9.22964 52.757 9.2138C52.7486 9.19795 52.7364 9.18443 52.7214 9.17443C51.6729 8.46322 50.7936 7.58202 50.0837 6.53084C50.0754 6.51845 50.0641 6.50833 50.0509 6.50139C50.0377 6.49446 50.0229 6.49093 50.008 6.49112C49.993 6.49132 49.9784 6.49523 49.9654 6.5025C49.9523 6.50978 49.9413 6.52019 49.9333 6.5328C49.2455 7.5944 48.3715 8.46973 47.3112 9.1588C47.2954 9.16918 47.2823 9.18329 47.2733 9.1999C47.2642 9.2165 47.2593 9.23509 47.2591 9.25401C47.2589 9.27294 47.2634 9.29162 47.2722 9.30841C47.2809 9.3252 47.2936 9.33957 47.3092 9.35027Z" fill="#F5F5F5"/>
<path d="M0 28.084V27.9902C0.130258 27.1383 0.58095 26.6785 1.35208 26.6108C3.71365 26.4024 5.26763 25.2789 6.01401 23.2403C6.25433 22.5799 6.13124 21.644 6.51029 21.0325C7.30551 19.7449 9.00733 20.3135 9.17537 21.8257C9.48277 24.6146 11.0087 26.2031 13.7533 26.5912C14.7517 26.7319 15.5919 27.0973 15.4082 28.2423C15.2871 29.0069 14.7758 29.4296 13.8744 29.5103C11.6092 29.7122 10.1236 30.8656 9.41765 32.9706C9.23789 33.504 9.25548 34.1742 9.13238 34.6939C8.8647 35.8096 7.38171 36.1163 6.66074 35.2762C6.08435 34.606 6.28364 33.4493 5.91827 32.5935C5.11067 30.7074 3.62573 29.6803 1.46345 29.5123C0.623284 29.4471 0.135468 28.971 0 28.084ZM9.3645 28.0886C9.37402 28.0791 9.37937 28.0662 9.37937 28.0527C9.37937 28.0393 9.37402 28.0263 9.3645 28.0168L7.76737 26.4197C7.75784 26.4102 7.74493 26.4048 7.73146 26.4048C7.71799 26.4048 7.70507 26.4102 7.69555 26.4197L6.09841 28.0168C6.08889 28.0263 6.08354 28.0393 6.08354 28.0527C6.08354 28.0662 6.08889 28.0791 6.09841 28.0886L7.69555 29.6858C7.70507 29.6953 7.71799 29.7006 7.73146 29.7006C7.74493 29.7006 7.75784 29.6953 7.76737 29.6858L9.3645 28.0886Z" fill="#F5F5F5"/>
<path d="M91.1849 20.9054C91.7749 20.036 93.127 20.2294 93.5784 21.1282C93.6526 21.2767 93.7223 21.5991 93.7874 22.0953C94.1489 24.8562 95.8839 26.3509 98.6565 26.6146C100.028 26.7436 100.528 28.5021 99.352 29.2602C99.1632 29.3813 98.8297 29.4679 98.3517 29.52C96.248 29.7467 94.8152 30.8272 94.0531 32.7615C93.6975 33.6662 94.0043 35.1355 92.9551 35.6142C92.1657 35.9756 91.349 35.663 90.9699 34.8717C90.7531 34.4184 90.796 33.5411 90.6319 33.0136C90.034 31.0988 88.5081 29.7682 86.4702 29.5787C85.9947 29.5344 85.6815 29.4797 85.5304 29.4145C84.5261 28.9886 84.2721 27.6697 85.0634 26.98C85.7218 26.4036 86.9411 26.601 87.7988 26.2356C89.2277 25.6273 90.1715 24.5846 90.63 23.1074C90.8273 22.4705 90.7198 21.5893 91.1849 20.9054ZM92.281 26.4134L90.7218 27.9784C90.6996 28.0008 90.6871 28.031 90.6871 28.0625C90.6871 28.0939 90.6996 28.1241 90.7218 28.1465L92.238 29.6451C92.253 29.66 92.271 29.6715 92.2909 29.6788C92.3107 29.6862 92.3318 29.6892 92.3529 29.6877C92.374 29.6863 92.3945 29.6803 92.4131 29.6702C92.4317 29.6602 92.448 29.6463 92.4607 29.6295C92.8763 29.0759 93.3615 28.5913 93.9164 28.1758C93.9367 28.1606 93.9532 28.1409 93.9644 28.1181C93.9756 28.0953 93.9813 28.0702 93.9809 28.0449C93.9805 28.0195 93.9741 27.9946 93.9622 27.9721C93.9503 27.9497 93.9333 27.9305 93.9125 27.9159C93.3328 27.5004 92.8346 27.0028 92.4178 26.4232C92.4104 26.4125 92.4007 26.4037 92.3894 26.3973C92.3781 26.3909 92.3654 26.3871 92.3524 26.3861C92.3393 26.3852 92.3261 26.3871 92.3138 26.3919C92.3014 26.3966 92.2902 26.4039 92.281 26.4134Z" fill="#F5F5F5"/>
<path d="M89.1333 100H79.4128C75.9994 99.5154 76.5308 96.4029 76.5445 93.8492C76.5445 93.8223 76.534 93.7964 76.5153 93.7774C76.4967 93.7583 76.4713 93.7476 76.4449 93.7476H23.1981C23.1277 93.7476 23.0925 93.7828 23.0925 93.8531C23.1082 96.4752 23.6474 99.5174 20.2106 100H10.4901C8.04189 99.6307 7.62377 98.0403 7.62181 95.7777C7.62051 94.6184 7.61986 93.4571 7.61986 92.2939C7.61986 92.2629 7.613 92.2323 7.59981 92.2046C7.58662 92.1768 7.56742 92.1526 7.54366 92.1337C6.16553 91.0304 5.25307 89.679 4.80629 88.0794C4.60178 87.3487 4.49888 86.0624 4.49758 84.2205C4.49106 78.7836 4.49106 73.346 4.49758 67.9077C4.50148 65.1977 5.48623 63.8163 7.22713 61.3583C8.43202 59.6572 9.65449 57.9514 10.8945 56.2411C10.9013 56.2315 10.9054 56.2201 10.9062 56.2084C10.9069 56.1966 10.9045 56.1848 10.899 56.1743C10.8936 56.1638 10.8854 56.155 10.8753 56.1489C10.8652 56.1428 10.8536 56.1395 10.8418 56.1395C8.25096 56.1343 5.64645 56.1285 3.02827 56.122C1.66251 56.118 1.37334 55.2818 1.37139 54.043C1.36748 52.2325 1.37008 50.4225 1.3792 48.6132C1.38702 47.2494 2.22327 46.9583 3.46398 46.9544C5.6953 46.9505 7.92596 46.9505 10.156 46.9544C11.0997 46.9544 11.85 47.1381 12.0981 48.0877C12.4342 49.3785 12.7514 50.6648 13.0497 51.9465C13.0547 51.9705 13.0673 51.9923 13.0855 52.0086C13.1038 52.025 13.1268 52.0351 13.1512 52.0375C13.1756 52.0399 13.2001 52.0345 13.2212 52.022C13.2423 52.0095 13.2589 51.9906 13.2685 51.968C13.3076 51.8762 13.2744 51.7707 13.3115 51.6671C15.479 45.5112 17.651 39.3571 19.8276 33.205C20.9667 29.9851 22.3169 27.7518 25.6834 26.8745C26.4311 26.6791 27.6587 26.5814 29.3664 26.5814C42.8937 26.5866 56.421 26.5853 69.9483 26.5775C71.7732 26.5775 73.0686 26.67 73.8345 26.855C76.0359 27.3903 77.6784 28.6408 78.7622 30.6064C79.0162 31.0662 79.4903 32.2769 80.1846 34.2386C82.2856 40.1641 84.373 46.0862 86.4467 52.0052C86.4514 52.0181 86.4601 52.0292 86.4716 52.0369C86.4831 52.0445 86.4967 52.0483 86.5104 52.0477C86.5242 52.047 86.5374 52.042 86.5481 52.0332C86.5588 52.0245 86.5664 52.0126 86.5698 51.9993C86.8916 50.6681 87.2185 49.3648 87.5507 48.0896C87.7851 47.1908 88.4768 46.9583 89.3834 46.9564C91.8101 46.9512 94.2374 46.9498 96.6655 46.9525C98.0156 46.9544 98.2735 47.902 98.2774 49.0978C98.2813 50.8901 98.2813 52.6818 98.2774 54.4729C98.2748 55.5475 97.7219 56.09 96.6186 56.1005C94.0082 56.1265 91.4089 56.1382 88.8207 56.1356C88.8078 56.1357 88.7952 56.1394 88.7842 56.1461C88.7732 56.1529 88.7643 56.1626 88.7585 56.1741C88.7526 56.1856 88.75 56.1985 88.751 56.2113C88.752 56.2242 88.7565 56.2365 88.764 56.247C90.3636 58.4757 91.9638 60.7116 93.5647 62.9546C94.9597 64.9065 95.1454 66.5849 95.1493 69.2051C95.1571 74.7163 95.1545 80.2268 95.1414 85.7367C95.1349 88.381 94.1196 90.5159 92.0954 92.1415C92.0446 92.1832 92.0198 92.2366 92.0211 92.3017C92.038 93.7124 92.0328 95.1199 92.0055 96.524C91.9684 98.4252 91.1497 99.7323 89.1333 100ZM69.0925 53.3182C70.2765 53.7441 70.3957 55.3795 69.282 55.9539C69.0475 56.0751 68.6906 56.1356 68.2113 56.1356C50.3438 56.1356 32.49 56.1356 14.6499 56.1356C14.6209 56.1357 14.5923 56.1426 14.5665 56.1559C14.5407 56.1691 14.5184 56.1883 14.5014 56.2118C12.4225 59.1283 10.3742 62.0311 8.35647 64.9202C7.73383 65.8138 7.42252 66.8096 7.42252 67.9077C7.42122 73.4215 7.42252 78.9249 7.42643 84.4179C7.42659 84.4546 7.43999 84.4899 7.4641 84.5173C7.48821 84.5446 7.52137 84.5621 7.55733 84.5664C7.59771 84.5716 7.63288 84.5651 7.66284 84.5468C7.69671 84.526 7.73318 84.5156 7.77226 84.5156H34.1417C34.2055 84.5156 34.2374 84.4837 34.2374 84.4198C34.2387 81.1347 34.255 77.8496 34.2863 74.5645C34.3019 72.7083 34.3507 71.5165 35.0873 70.0609C36.4531 67.3626 39.1104 65.7604 42.1564 65.7584C46.8236 65.7558 51.4907 65.7571 56.1579 65.7623C57.8291 65.7636 59.0274 65.8626 59.753 66.0593C61.5167 66.5387 62.9293 67.5456 63.9909 69.08C65.4426 71.1765 65.3879 73.1069 65.4016 76.11C65.4146 78.8923 65.4114 81.672 65.3918 84.4491C65.3916 84.4578 65.3931 84.4664 65.3962 84.4744C65.3993 84.4825 65.404 84.4898 65.41 84.496C65.416 84.5022 65.4232 84.5071 65.4312 84.5105C65.4391 84.5138 65.4477 84.5156 65.4563 84.5156L92.1384 84.5175C92.1601 84.5175 92.181 84.5089 92.1964 84.4935C92.2118 84.4781 92.2204 84.4572 92.2204 84.4355C92.2256 79.1118 92.225 73.7836 92.2185 68.4509C92.2165 67.175 92.1051 65.989 91.4506 65.0668C89.3534 62.1151 87.2491 59.1648 85.1376 56.2157C85.0999 56.1623 85.0484 56.1356 84.9833 56.1356C81.7216 56.1356 78.4593 56.1343 75.1964 56.1317C72.7931 56.1298 72.9865 53.2087 74.9814 53.2068C77.8914 53.2042 80.7799 53.2035 83.6468 53.2048C83.7276 53.2048 83.7543 53.1671 83.7269 53.0915C81.5868 47.0215 79.4564 40.9886 77.3358 34.9928C76.6559 33.0689 76.1609 31.8894 75.8509 31.4544C74.9261 30.1583 73.5447 29.5109 71.7067 29.5122C57.4331 29.5161 43.1575 29.5161 28.8799 29.5122C25.2711 29.5122 23.9483 30.413 22.7311 33.8342C20.4516 40.239 18.1831 46.6535 15.9258 53.0778C15.8945 53.1664 15.9251 53.21 16.0176 53.2087C33.4018 53.1983 50.8056 53.2009 68.2289 53.2166C68.6183 53.2166 68.9062 53.2504 69.0925 53.3182ZM9.54247 49.9516C9.53765 49.9325 9.52656 49.9156 9.51097 49.9036C9.49538 49.8915 9.4762 49.885 9.4565 49.8852L4.38621 49.8774C4.36289 49.8774 4.34052 49.8867 4.32403 49.9031C4.30755 49.9196 4.29828 49.942 4.29828 49.9653V53.1169C4.29828 53.1402 4.30755 53.1626 4.32403 53.1791C4.34052 53.1956 4.36289 53.2048 4.38621 53.2048H10.2439C10.2573 53.2049 10.2706 53.202 10.2827 53.1961C10.2948 53.1903 10.3055 53.1818 10.3138 53.1712C10.3221 53.1607 10.3278 53.1483 10.3306 53.1352C10.3334 53.122 10.3332 53.1084 10.3299 53.0954L9.54247 49.9516ZM89.3287 53.0583C89.3246 53.0752 89.3243 53.0928 89.328 53.1099C89.3316 53.1269 89.3391 53.1429 89.3498 53.1566C89.3605 53.1703 89.3742 53.1814 89.3898 53.1891C89.4055 53.1968 89.4226 53.2008 89.4401 53.2009L95.2333 53.2107C95.2638 53.2107 95.2932 53.1986 95.3148 53.1769C95.3364 53.1553 95.3486 53.126 95.3486 53.0954V49.9985C95.3486 49.968 95.3364 49.9386 95.3148 49.917C95.2932 49.8954 95.2638 49.8833 95.2333 49.8833H90.2099C90.1842 49.8834 90.1592 49.8921 90.1391 49.9081C90.1189 49.924 90.1046 49.9462 90.0985 49.9712L89.3287 53.0583ZM62.1641 71.9014C61.4997 69.9612 59.6338 68.6834 57.59 68.6834C52.695 68.6834 47.8012 68.686 42.9087 68.6912C40.3276 68.6951 38.4714 69.3594 37.4769 71.8897C37.4444 71.9704 37.4717 72.0108 37.559 72.0108H62.0859C62.0991 72.0109 62.1121 72.0079 62.1239 72.0019C62.1356 71.9959 62.1458 71.9872 62.1535 71.9765C62.1611 71.9657 62.1661 71.9533 62.1679 71.9402C62.1698 71.9272 62.1685 71.9138 62.1641 71.9014ZM62.4317 75.0002C62.4317 74.9847 62.4256 74.9698 62.4146 74.9588C62.4036 74.9478 62.3887 74.9416 62.3731 74.9416H37.2698C37.2543 74.9416 37.2394 74.9478 37.2284 74.9588C37.2174 74.9698 37.2112 74.9847 37.2112 75.0002V78.2046C37.2112 78.2123 37.2127 78.2199 37.2157 78.227C37.2186 78.2341 37.2229 78.2406 37.2284 78.246C37.2338 78.2515 37.2403 78.2558 37.2474 78.2587C37.2545 78.2617 37.2621 78.2632 37.2698 78.2632H62.3731C62.3887 78.2632 62.4036 78.257 62.4146 78.246C62.4256 78.235 62.4317 78.2201 62.4317 78.2046V75.0002ZM37.1995 84.2713C37.1591 84.3247 37.1467 84.369 37.1623 84.4042C37.1949 84.4784 37.247 84.5156 37.3187 84.5156H62.3282C62.3933 84.5156 62.4265 84.483 62.4278 84.4179L62.4825 81.3464C62.4831 81.3266 62.4796 81.3068 62.4724 81.2884C62.4651 81.2699 62.4543 81.2531 62.4404 81.2389C62.4266 81.2247 62.4101 81.2134 62.3918 81.2057C62.3735 81.198 62.3539 81.194 62.334 81.194H37.2854C37.2632 81.194 37.2418 81.2026 37.226 81.218C37.2103 81.2334 37.2014 81.2543 37.2014 81.2761L37.2288 84.1795C37.2288 84.2125 37.2186 84.2447 37.1995 84.2713ZM91.8374 87.4972L7.82501 87.4815C7.80806 87.4817 7.79136 87.4859 7.7764 87.4938C7.76144 87.5018 7.74867 87.5132 7.73922 87.5271C7.72976 87.541 7.72391 87.5569 7.72218 87.5735C7.72044 87.5901 7.72288 87.6068 7.72928 87.6222C8.88206 90.4338 10.9004 90.8148 13.8332 90.8148C37.7967 90.8174 61.7609 90.8174 85.7258 90.8148C88.7034 90.8148 90.7355 90.4631 91.9234 87.6261C91.9296 87.6122 91.9321 87.597 91.9307 87.5818C91.9294 87.5666 91.9242 87.552 91.9157 87.5392C91.9071 87.5264 91.8955 87.5159 91.8819 87.5086C91.8682 87.5012 91.853 87.4973 91.8374 87.4972ZM20.1754 93.9039C20.1754 93.8624 20.1589 93.8227 20.1296 93.7934C20.1003 93.7641 20.0606 93.7476 20.0191 93.7476H10.707C10.6655 93.7476 10.6258 93.7641 10.5964 93.7934C10.5671 93.8227 10.5507 93.8624 10.5507 93.9039V96.9129C10.5507 96.9543 10.5671 96.9941 10.5964 97.0234C10.6258 97.0527 10.6655 97.0692 10.707 97.0692H20.0191C20.0606 97.0692 20.1003 97.0527 20.1296 97.0234C20.1589 96.9941 20.1754 96.9543 20.1754 96.9129V93.9039ZM89.0708 93.8902C89.0708 93.8524 89.0557 93.8161 89.029 93.7894C89.0023 93.7626 88.966 93.7476 88.9281 93.7476H79.616C79.5782 93.7476 79.5419 93.7626 79.5151 93.7894C79.4884 93.8161 79.4734 93.8524 79.4734 93.8902V96.9265C79.4734 96.9644 79.4884 97.0006 79.5151 97.0274C79.5419 97.0541 79.5782 97.0692 79.616 97.0692H88.9281C88.966 97.0692 89.0023 97.0541 89.029 97.0274C89.0557 97.0006 89.0708 96.9644 89.0708 96.9265V93.8902Z" fill="#F5F5F5"/>
<path d="M20.5644 51.4464C19.7652 51.4464 19.0482 50.8426 19.0091 50.0337C18.9987 49.8071 19.0905 49.4176 19.2846 48.8653C21.0952 43.7097 22.9155 38.5567 24.7457 33.4063C25.408 31.5384 26.8656 31.2766 28.8019 31.2766C42.8046 31.2701 56.8073 31.2701 70.8101 31.2766C72.9124 31.2766 74.245 31.558 74.964 33.5822C76.7628 38.6479 78.5539 43.7162 80.3371 48.7872C80.978 50.6121 80.4309 51.4464 78.5239 51.4464C59.2041 51.4464 39.8842 51.4464 20.5644 51.4464ZM72.0977 34.2563C72.0925 34.2411 72.0827 34.2279 72.0698 34.2185C72.0569 34.2091 72.0414 34.2038 72.0254 34.2035H27.6217C27.6057 34.2038 27.5902 34.2091 27.5773 34.2185C27.5644 34.2279 27.5547 34.2411 27.5495 34.2563L22.5573 48.412C22.5533 48.4238 22.5521 48.4364 22.5539 48.4488C22.5557 48.4611 22.5604 48.4728 22.5677 48.483C22.575 48.4931 22.5846 48.5014 22.5957 48.507C22.6068 48.5127 22.6191 48.5156 22.6316 48.5156H77.0195C77.0319 48.5156 77.0442 48.5127 77.0553 48.507C77.0664 48.5014 77.076 48.4931 77.0833 48.483C77.0906 48.4728 77.0953 48.4611 77.0971 48.4488C77.0989 48.4364 77.0978 48.4238 77.0937 48.412L72.0977 34.2563Z" fill="#F5F5F5"/>
<path d="M26.3518 64.1992H16.9224C16.1379 64.1992 15.502 64.8352 15.502 65.6197V65.6939C15.502 66.4784 16.1379 67.1144 16.9224 67.1144H26.3518C27.1363 67.1144 27.7722 66.4784 27.7722 65.6939V65.6197C27.7722 64.8352 27.1363 64.1992 26.3518 64.1992Z" fill="#F5F5F5"/>
<path d="M82.7248 64.1992H73.2955C72.511 64.1992 71.875 64.8352 71.875 65.6197V65.6939C71.875 66.4784 72.511 67.1144 73.2955 67.1144H82.7248C83.5093 67.1144 84.1453 66.4784 84.1453 65.6939V65.6197C84.1453 64.8352 83.5093 64.1992 82.7248 64.1992Z" fill="#F5F5F5"/>
<path d="M30.9123 75.0393C30.9123 76.6722 29.9345 78.2381 28.194 79.3927C26.4535 80.5473 24.0929 81.196 21.6315 81.196C19.17 81.196 16.8094 80.5473 15.0689 79.3927C13.3284 78.2381 12.3506 76.6722 12.3506 75.0393C12.3506 73.4065 13.3284 71.8405 15.0689 70.6859C16.8094 69.5313 19.17 68.8827 21.6315 68.8827C24.0929 68.8827 26.4535 69.5313 28.194 70.6859C29.9345 71.8405 30.9123 73.4065 30.9123 75.0393ZM15.4064 75.561C15.9437 76.788 17.5322 77.5598 18.7573 77.8822C20.9287 78.454 23.0708 78.3759 25.1836 77.6477C27.0222 77.0127 29.3844 75.1956 26.8522 73.3141C24.6521 71.6806 21.2876 71.5243 18.7593 72.2062C17.6006 72.5188 14.6503 73.8358 15.4064 75.561Z" fill="#F5F5F5"/>
<path d="M87.2951 75.0393C87.2951 76.6722 86.3173 78.2381 84.5768 79.3927C82.8363 80.5473 80.4757 81.196 78.0143 81.196C75.5528 81.196 73.1922 80.5473 71.4517 79.3927C69.7112 78.2381 68.7334 76.6722 68.7334 75.0393C68.7334 73.4065 69.7112 71.8405 71.4517 70.6859C73.1922 69.5313 75.5528 68.8827 78.0143 68.8827C80.4757 68.8827 82.8363 69.5313 84.5768 70.6859C86.3173 71.8405 87.2951 73.4065 87.2951 75.0393ZM73.9756 72.6283C70.1324 74.1953 71.7678 76.8232 74.7201 77.7415C77.4398 78.5895 81.7227 78.5153 83.8114 76.2488C85.2455 74.6955 83.4402 73.1832 82.1135 72.64C79.3911 71.5289 76.6785 71.525 73.9756 72.6283Z" fill="#F5F5F5"/>
</svg>
