<svg width="20" height="22" viewBox="0 0 20 22" fill="none" xmlns="http://www.w3.org/2000/svg">
<path d="M11.9596 5.04C12.1471 5.22726 12.4012 5.33245 12.6662 5.33245C12.9312 5.33245 13.1854 5.22726 13.3729 5.04L14.3329 4.07999V17.6667C14.3329 17.9319 14.4382 18.1862 14.6258 18.3738C14.8133 18.5613 15.0677 18.6667 15.3329 18.6667C15.5981 18.6667 15.8525 18.5613 16.04 18.3738C16.2275 18.1862 16.3329 17.9319 16.3329 17.6667V4.07999L17.2929 5.04C17.3844 5.13824 17.4948 5.21705 17.6175 5.2717C17.7402 5.32636 17.8726 5.35575 18.0069 5.35812C18.1411 5.36049 18.2745 5.33579 18.399 5.28549C18.5235 5.2352 18.6366 5.16034 18.7316 5.06538C18.8266 4.97042 18.9014 4.85731 18.9517 4.73279C19.002 4.60827 19.0267 4.4749 19.0243 4.34063C19.022 4.20636 18.9926 4.07394 18.9379 3.95128C18.8833 3.82861 18.8045 3.71821 18.7062 3.62666L16.0396 0.959995C15.8521 0.772727 15.5979 0.667542 15.3329 0.667542C15.0679 0.667542 14.8137 0.772727 14.6262 0.959995L11.9596 3.62666C11.7723 3.81416 11.6671 4.06833 11.6671 4.33333C11.6671 4.59833 11.7723 4.85249 11.9596 5.04ZM5.66622 17.92L6.62622 16.96C6.71777 16.8617 6.82817 16.7829 6.95084 16.7283C7.0735 16.6736 7.20592 16.6442 7.34019 16.6419C7.47446 16.6395 7.60783 16.6642 7.73235 16.7145C7.85687 16.7648 7.96998 16.8397 8.06494 16.9346C8.1599 17.0296 8.23476 17.1427 8.28505 17.2672C8.33534 17.3917 8.36004 17.5251 8.35768 17.6594C8.35531 17.7936 8.32592 17.926 8.27126 18.0487C8.21661 18.1714 8.1378 18.2818 8.03955 18.3733L5.37289 21.04C5.18539 21.2273 4.93122 21.3324 4.66622 21.3324C4.40122 21.3324 4.14705 21.2273 3.95955 21.04L1.29289 18.3733C1.19464 18.2818 1.11583 18.1714 1.06118 18.0487C1.00652 17.926 0.977134 17.7936 0.974765 17.6594C0.972396 17.5251 0.997095 17.3917 1.04739 17.2672C1.09768 17.1427 1.17254 17.0296 1.2675 16.9346C1.36246 16.8397 1.47557 16.7648 1.60009 16.7145C1.72461 16.6642 1.85798 16.6395 1.99225 16.6419C2.12652 16.6442 2.25894 16.6736 2.3816 16.7283C2.50427 16.7829 2.61467 16.8617 2.70622 16.96L3.66622 17.92V4.33333C3.66622 4.06811 3.77158 3.81376 3.95911 3.62622C4.14665 3.43868 4.401 3.33333 4.66622 3.33333C4.93144 3.33333 5.18579 3.43868 5.37333 3.62622C5.56086 3.81376 5.66622 4.06811 5.66622 4.33333V17.92Z" fill="#F5F5F5"/>
</svg>
