<svg width="27" height="16" viewBox="0 0 27 16" fill="none" xmlns="http://www.w3.org/2000/svg">
<path fill-rule="evenodd" clip-rule="evenodd" d="M26.7854 13.0241C26.1561 11.8463 25.3269 10.7703 24.3295 9.83752C23.996 9.48717 23.6467 9.15001 23.2827 8.82692L23.2387 8.78714C23.1035 8.66514 22.9701 8.5415 22.8384 8.41623C24.2018 6.65424 25.3685 4.76773 26.3204 2.78593L26.3586 2.70637L26.3852 2.62251C26.5112 2.23225 26.6547 1.49043 26.1457 0.819566C25.6182 0.127201 24.7749 0.00248876 24.2092 0.00248876H21.6099C21.0657 -0.0205624 20.5275 0.116985 20.0725 0.395448C19.6174 0.67391 19.2688 1.07901 19.0766 1.55279C18.5172 2.79092 17.8168 3.96985 16.9874 5.06944V2.2387C16.9874 1.87317 16.9504 1.26036 16.5282 0.744309C16.0238 0.12505 15.2939 0.00248876 14.7872 0.00248876H10.6621C10.1238 -0.009022 9.6014 0.172313 9.20301 0.508942C8.80463 0.84557 8.56081 1.3117 8.52205 1.81081L8.51858 1.85919V1.90757C8.51858 2.42899 8.74068 2.81388 8.91883 3.05578C8.99865 3.16436 9.08309 3.26327 9.13746 3.32563L9.14903 3.3396C9.20687 3.40626 9.24504 3.45034 9.28322 3.49979C9.38501 3.62666 9.52961 3.82447 9.57126 4.33407V5.9177C8.7432 4.629 8.06424 3.26246 7.54572 1.84091L7.53647 1.81726L7.52721 1.79468C7.38609 1.45173 7.16051 0.952879 6.70821 0.572293C6.18071 0.126126 5.55605 0.00248876 4.98807 0.00248876H2.35059C1.77567 0.00248876 1.08275 0.127201 0.565669 0.633574C0.0578394 1.13242 0 1.73018 0 2.04626V2.19032L0.03239 2.33008C0.76267 5.48096 2.26758 8.43205 4.42934 10.9524C5.41767 12.4009 6.75944 13.6125 8.34581 14.4889C9.93219 15.3654 11.7185 15.8819 13.5599 15.9968L13.6073 16H13.6559C14.4957 16 15.3714 15.9323 16.0296 15.5248C16.9169 14.9744 16.9874 14.1304 16.9874 13.709V12.4855C17.2153 12.6575 17.4976 12.8876 17.8434 13.1972C18.2622 13.5864 18.5954 13.924 18.8811 14.2186L19.0338 14.3755C19.2559 14.6056 19.4745 14.8324 19.6735 15.0184C19.9233 15.2517 20.2322 15.5087 20.6186 15.699C21.0385 15.9043 21.4792 15.9979 21.9466 15.9979H24.5852C25.1416 15.9979 25.9386 15.8753 26.4997 15.2711C27.1105 14.6131 27.0642 13.8057 26.8722 13.2262L26.8375 13.122L26.7854 13.0241ZM20.1686 13.1381C19.8101 12.7656 19.4409 12.4021 19.0615 12.0479L19.0581 12.0447C17.4883 10.6385 16.7561 10.3944 16.2378 10.3944C15.9613 10.3944 15.6571 10.4224 15.4593 10.6524C15.3702 10.7622 15.3118 10.8907 15.2893 11.0266C15.2614 11.1843 15.249 11.3441 15.2522 11.5039V13.709C15.2522 13.9831 15.2037 14.0981 15.0672 14.182C14.8855 14.2949 14.498 14.3863 13.6663 14.3863C12.0864 14.2864 10.5545 13.8394 9.19666 13.082C7.83882 12.3247 6.69377 11.2787 5.85566 10.03L5.8464 10.016L5.83483 10.0031C3.821 7.67351 2.4175 4.94069 1.73518 2.02045C1.73981 1.88069 1.7722 1.79576 1.82541 1.74415C1.87978 1.6904 2.01281 1.61514 2.35059 1.61514H4.98807C5.28073 1.61514 5.43343 1.67535 5.54332 1.76673C5.66594 1.87209 5.77468 2.04948 5.90424 2.36556C6.55204 4.13518 7.42657 5.79084 8.25599 7.00678C8.67012 7.61528 9.07731 8.12166 9.44517 8.47966C9.6291 8.65813 9.8084 8.8065 9.98076 8.91186C10.1462 9.01292 10.3347 9.09355 10.5291 9.09355C10.6309 9.09355 10.75 9.0828 10.8645 9.03657C10.9882 8.9858 11.09 8.89798 11.1537 8.78714C11.2729 8.58503 11.3064 8.28722 11.3064 7.89696V4.27064C11.2451 3.39121 10.9594 2.89559 10.6818 2.54403C10.6255 2.47371 10.5677 2.40453 10.5083 2.33653L10.4932 2.31933C10.4439 2.26365 10.3968 2.20627 10.3521 2.14732C10.2951 2.08157 10.2609 2.00138 10.2538 1.91724C10.2628 1.83181 10.3067 1.75284 10.3764 1.69648C10.446 1.64012 10.5363 1.61063 10.6286 1.61407H14.7872C15.0255 1.61407 15.1053 1.66782 15.1458 1.71835C15.2037 1.78823 15.2522 1.93337 15.2522 2.2387V7.10676C15.2522 7.68517 15.5391 8.0765 15.9556 8.0765C16.4345 8.0765 16.7804 7.80665 17.3842 7.24545L17.3946 7.2347L17.4039 7.22502C18.7584 5.69008 19.8651 3.97991 20.6891 2.14839L20.6938 2.13549C20.7557 1.97367 20.8729 1.83512 21.0274 1.74098C21.182 1.64683 21.3654 1.60226 21.5498 1.61407H24.2104C24.5713 1.61407 24.6893 1.70007 24.7286 1.7506C24.7691 1.80436 24.798 1.91939 24.7286 2.14517C23.7784 4.11944 22.6038 5.9936 21.2247 7.7357L21.2155 7.7486C21.0824 7.93889 20.9355 8.14961 20.9147 8.39043C20.8916 8.65061 21.0119 8.88605 21.2236 9.13978C21.3774 9.3505 21.6955 9.6397 22.0183 9.9332L22.0484 9.96116C22.3861 10.2686 22.7528 10.6019 23.0467 10.9244L23.0548 10.932L23.0629 10.9406C23.939 11.7528 24.6676 12.6917 25.2203 13.7208C25.3082 14.0003 25.255 14.1444 25.1856 14.2186C25.1058 14.3046 24.9264 14.3852 24.5864 14.3852H21.9466C21.7667 14.3893 21.5886 14.3504 21.4295 14.2723C21.2344 14.1669 21.0574 14.035 20.9043 13.881C20.7389 13.7272 20.5596 13.5412 20.3398 13.3144L20.1697 13.1381H20.1686Z" fill="#F5F5F5"/>
</svg>
