<svg width="22" height="20" viewBox="0 0 22 20" fill="none" xmlns="http://www.w3.org/2000/svg">
<path d="M2 9.52568C2 6.14145 2 4.44888 3.05179 3.39799C4.10269 2.34619 5.79526 2.34619 9.17949 2.34619H12.7692C16.1535 2.34619 17.846 2.34619 18.8969 3.39799C19.9487 4.44888 19.9487 6.14145 19.9487 9.52568V11.3206C19.9487 14.7048 19.9487 16.3973 18.8969 17.4482C17.846 18.5 16.1535 18.5 12.7692 18.5H9.17949C5.79526 18.5 4.10269 18.5 3.05179 17.4482C2 16.3973 2 14.7048 2 11.3206V9.52568Z" stroke="#212528"/>
<path d="M6.48768 2.34615V1M15.462 2.34615V1M2.44922 6.83333H19.5005" stroke="#212528" stroke-linecap="round"/>
<path d="M15.8591 14.0128C15.8591 14.1182 15.8172 14.2193 15.7427 14.2938C15.6681 14.3684 15.567 14.4102 15.4616 14.4102C15.3562 14.4102 15.2551 14.3684 15.1806 14.2938C15.1061 14.2193 15.0642 14.1182 15.0642 14.0128C15.0642 13.9074 15.1061 13.8063 15.1806 13.7318C15.2551 13.6573 15.3562 13.6154 15.4616 13.6154C15.567 13.6154 15.6681 13.6573 15.7427 13.7318C15.8172 13.8063 15.8591 13.9074 15.8591 14.0128ZM6.76831 14.2938L7.12186 14.6474L6.76831 14.2938C6.69378 14.3684 6.59269 14.4102 6.48728 14.4102C6.38187 14.4102 6.28078 14.3684 6.20625 14.2938C6.13172 14.2193 6.08984 14.1182 6.08984 14.0128C6.08984 13.9074 6.13172 13.8063 6.20625 13.7318C6.28078 13.6573 6.38187 13.6154 6.48728 13.6154C6.59269 13.6154 6.69378 13.6573 6.76831 13.7318C6.84284 13.8063 6.88472 13.9074 6.88472 14.0128C6.88472 14.1182 6.84284 14.2193 6.76831 14.2938ZM15.7427 10.7041L16.0962 11.0577L15.7427 10.7041C15.6681 10.7786 15.567 10.8205 15.4616 10.8205C15.3562 10.8205 15.2551 10.7786 15.1806 10.7041L14.8271 11.0577L15.1806 10.7041C15.1061 10.6296 15.0642 10.5285 15.0642 10.4231C15.0642 10.3177 15.1061 10.2166 15.1806 10.142C15.2551 10.0675 15.3562 10.0256 15.4616 10.0256C15.567 10.0256 15.6681 10.0675 15.7427 10.142C15.8172 10.2166 15.8591 10.3177 15.8591 10.4231C15.8591 10.5285 15.8172 10.6296 15.7427 10.7041ZM11.3719 14.0128C11.3719 14.1182 11.33 14.2193 11.2555 14.2938C11.181 14.3684 11.0799 14.4102 10.9745 14.4102C10.8691 14.4102 10.768 14.3684 10.6934 14.2938C10.6189 14.2193 10.577 14.1182 10.577 14.0128C10.577 13.9074 10.6189 13.8063 10.6934 13.7318C10.768 13.6573 10.8691 13.6154 10.9745 13.6154C11.0799 13.6154 11.181 13.6573 11.2555 13.7318C11.33 13.8063 11.3719 13.9074 11.3719 14.0128ZM11.3719 10.4231C11.3719 10.5285 11.33 10.6296 11.2555 10.7041C11.181 10.7786 11.0799 10.8205 10.9745 10.8205C10.8691 10.8205 10.768 10.7786 10.6934 10.7041C10.6189 10.6296 10.577 10.5285 10.577 10.4231C10.577 10.3177 10.6189 10.2166 10.6934 10.142C10.768 10.0675 10.8691 10.0256 10.9745 10.0256C11.0799 10.0256 11.181 10.0675 11.2555 10.142C11.33 10.2166 11.3719 10.3177 11.3719 10.4231ZM6.88472 10.4231C6.88472 10.5285 6.84284 10.6296 6.76831 10.7041C6.69378 10.7786 6.59269 10.8205 6.48728 10.8205C6.38187 10.8205 6.28078 10.7786 6.20625 10.7041C6.13172 10.6296 6.08984 10.5285 6.08984 10.4231C6.08984 10.3177 6.13172 10.2166 6.20625 10.142C6.28078 10.0675 6.38187 10.0256 6.48728 10.0256C6.59269 10.0256 6.69378 10.0675 6.76831 10.142C6.84284 10.2166 6.88472 10.3177 6.88472 10.4231Z" stroke="#212528"/>
</svg>
