<svg width="19" height="25" viewBox="0 0 19 25" fill="none" xmlns="http://www.w3.org/2000/svg">
<path d="M9.50014 14.2858C8.69489 14.2858 7.90772 14.0344 7.23818 13.5635C6.56863 13.0926 6.04679 12.4233 5.73863 11.6401C5.43048 10.857 5.34985 9.99532 5.50694 9.16397C5.66404 8.33262 6.05181 7.56898 6.62121 6.96961C7.19061 6.37025 7.91607 5.96207 8.70584 5.79671C9.49562 5.63134 10.3143 5.71621 11.0582 6.04059C11.8022 6.36496 12.438 6.91427 12.8854 7.61906C13.3328 8.32384 13.5716 9.15244 13.5716 10.0001C13.5703 11.1363 13.1409 12.2256 12.3776 13.029C11.6144 13.8325 10.5796 14.2844 9.50014 14.2858ZM9.50014 7.42864C9.01699 7.42864 8.54469 7.57945 8.14296 7.86201C7.74124 8.14456 7.42813 8.54616 7.24324 9.01603C7.05834 9.48589 7.00996 10.0029 7.10422 10.5017C7.19848 11.0005 7.43114 11.4587 7.77278 11.8183C8.11442 12.178 8.5497 12.4229 9.02356 12.5221C9.49743 12.6213 9.98861 12.5704 10.435 12.3758C10.8814 12.1811 11.2629 11.8515 11.5313 11.4287C11.7997 11.0058 11.943 10.5087 11.943 10.0001C11.9424 9.31829 11.6848 8.66464 11.2268 8.18255C10.7688 7.70046 10.1478 7.42932 9.50014 7.42864Z" fill="#212528"/>
<path d="M9.5 25L2.21437 16.117C2.11314 15.9836 2.01295 15.8494 1.91383 15.7143C0.669311 14.0194 -0.00300648 11.9493 1.0107e-05 9.82143C1.0107e-05 7.21662 1.0009 4.71851 2.78249 2.87663C4.56409 1.03475 6.98045 0 9.5 0C12.0196 0 14.4359 1.03475 16.2175 2.87663C17.9991 4.71851 19 7.21662 19 9.82143C19.003 11.9483 18.331 14.0175 17.087 15.7116L17.0862 15.7143C17.0862 15.7143 16.8271 16.0661 16.7882 16.1134L9.5 25ZM3.29219 14.6384C3.29392 14.6384 3.49428 14.9134 3.54005 14.9723L9.5 22.2393L15.4677 14.9625C15.5057 14.9134 15.7078 14.6366 15.7087 14.6357C16.7253 13.251 17.2747 11.5598 17.2727 9.82143C17.2727 7.69022 16.4538 5.64631 14.9961 4.13932C13.5385 2.63233 11.5615 1.78571 9.5 1.78571C7.43855 1.78571 5.46153 2.63233 4.00386 4.13932C2.54619 5.64631 1.72728 7.69022 1.72728 9.82143C1.72547 11.5609 2.27463 13.253 3.29219 14.6384Z" fill="#212528"/>
</svg>
