<svg width="17" height="16" viewBox="0 0 17 16" fill="none" xmlns="http://www.w3.org/2000/svg">
<path d="M14.8725 14.2528L10.6356 9.97443C11.4253 9.02519 11.9012 7.80396 11.9012 6.47048C11.9012 3.44924 9.46087 1 6.4506 1C3.44034 1 1 3.44924 1 6.47048C1 9.49171 3.44034 11.941 6.4506 11.941C7.81827 11.941 9.06755 11.4342 10.0247 10.5987L14.2557 14.8718C14.4259 15.0427 14.7022 15.0427 14.8725 14.8718C15.0425 14.7009 15.0425 14.4239 14.8725 14.2528H14.8725ZM6.4506 11.0729C3.91804 11.0729 1.8649 9.01228 1.8649 6.47048C1.8649 3.92867 3.91804 1.86806 6.4506 1.86806C8.98317 1.86806 11.0363 3.92867 11.0363 6.47048C11.0363 9.01228 8.98317 11.0729 6.4506 11.0729Z" fill="#D9D9D9" stroke="#D9D9D9"/>
</svg>
