<svg width="31" height="31" viewBox="0 0 31 31" fill="none" xmlns="http://www.w3.org/2000/svg">
<path fill-rule="evenodd" clip-rule="evenodd" d="M30.5868 2.40823C30.7178 2.27723 30.8217 2.12172 30.8926 1.95056C30.9635 1.77941 31 1.59597 31 1.41071C31 1.22545 30.9635 1.04201 30.8926 0.870854C30.8217 0.699699 30.7178 0.544183 30.5868 0.413187C30.4558 0.28219 30.3003 0.178279 30.1291 0.107384C29.958 0.0364892 29.7745 0 29.5893 0C29.404 0 29.2206 0.0364892 29.0494 0.107384C28.8783 0.178279 28.7228 0.28219 28.5918 0.413187L15.5 13.5078L2.40823 0.413187C2.27723 0.28219 2.12172 0.178279 1.95056 0.107384C1.77941 0.0364892 1.59597 1.38027e-09 1.41071 0C1.22545 -1.38027e-09 1.04201 0.0364892 0.870854 0.107384C0.699699 0.178279 0.544183 0.28219 0.413187 0.413187C0.28219 0.544183 0.178279 0.699699 0.107384 0.870854C0.0364892 1.04201 -1.38027e-09 1.22545 0 1.41071C1.38027e-09 1.59597 0.0364892 1.77941 0.107384 1.95056C0.178279 2.12172 0.28219 2.27723 0.413187 2.40823L13.5078 15.5L0.413187 28.5918C0.148628 28.8563 0 29.2151 0 29.5893C0 29.9634 0.148628 30.3223 0.413187 30.5868C0.677746 30.8514 1.03657 31 1.41071 31C1.78485 31 2.14367 30.8514 2.40823 30.5868L15.5 17.4922L28.5918 30.5868C28.8563 30.8514 29.2151 31 29.5893 31C29.9634 31 30.3223 30.8514 30.5868 30.5868C30.8514 30.3223 31 29.9634 31 29.5893C31 29.2151 30.8514 28.8563 30.5868 28.5918L17.4922 15.5L30.5868 2.40823Z" fill="#F5F5F5"/>
</svg>
