<svg width="34" height="31" viewBox="0 0 34 31" fill="none" xmlns="http://www.w3.org/2000/svg">
<path d="M30.8592 26.1956L31.7456 27.0871L30.8575 26.1956H30.8592ZM9.73506 22.5828L10.6198 21.6913L9.73338 22.5828H9.73506ZM2.82104 4.83357L1.93626 3.94376L2.82272 4.83524L2.82104 4.83357ZM22.8258 21.1819L23.5916 20.4228L21.817 18.6398L21.0562 19.3989L22.8258 21.1819ZM26.1538 20.1044L29.3561 21.8455L30.5542 19.6369L27.3536 17.8975L26.1538 20.1044ZM29.971 25.3042L27.5915 27.6719L29.3628 29.4532L31.7423 27.0871L29.971 25.3042ZM26.1404 28.4327C23.7106 28.6606 17.4266 28.4579 10.6198 21.6913L8.84693 23.4726C16.2737 30.8575 23.3436 31.2194 26.375 30.9362L26.1387 28.4327H26.1404ZM10.6198 21.6913C4.13313 15.2398 3.05732 9.81548 2.92326 7.46109L0.413033 7.60353C0.580605 10.5662 1.9128 16.5787 8.84693 23.4726L10.6198 21.6913ZM12.924 11.3354L13.4049 10.8561L11.6353 9.07481L11.1544 9.55239L12.9256 11.3337L12.924 11.3354ZM13.7869 4.76486L11.6755 1.94295L9.663 3.4511L11.7744 6.27133L13.7869 4.76486ZM4.56882 1.32796L1.93794 3.94208L3.71085 5.72505L6.34005 3.11093L4.56882 1.32796ZM12.0392 10.4439C11.151 9.55239 11.151 9.55239 11.151 9.55574H11.1477L11.1427 9.56244C11.0635 9.6432 10.9923 9.73129 10.9298 9.82553C10.8394 9.95959 10.7405 10.1355 10.6567 10.3584C10.4527 10.9337 10.4018 11.5522 10.5092 12.1531C10.7338 13.6026 11.7325 15.518 14.2897 18.0617L16.0626 16.2787C13.668 13.8992 13.0982 12.4514 12.9927 11.7677C12.9424 11.4426 12.9943 11.2817 13.0094 11.2449C13.0178 11.2214 13.0211 11.2197 13.0094 11.2348C12.9946 11.2581 12.9778 11.2799 12.9591 11.3002L12.9424 11.3169C12.937 11.3221 12.9314 11.3272 12.9256 11.332L12.0375 10.4439H12.0392ZM14.2897 18.0617C16.8485 20.6054 18.7739 21.5975 20.2251 21.8187C20.9674 21.9326 21.5656 21.8421 22.0198 21.6729C22.2737 21.5789 22.5112 21.4454 22.7236 21.2774C22.7524 21.2533 22.7803 21.2281 22.8073 21.202L22.8191 21.1919L22.8241 21.1869L22.8258 21.1836C22.8258 21.1836 22.8275 21.1819 21.941 20.2904C21.0529 19.3989 21.0579 19.3972 21.0579 19.3972L21.0612 19.3939L21.0646 19.3905L21.0747 19.3822L21.0914 19.3654C21.1116 19.3473 21.1328 19.3305 21.1551 19.3151C21.1718 19.3034 21.1668 19.3084 21.1434 19.3185C21.1015 19.3336 20.9372 19.3855 20.6071 19.3352C19.9134 19.228 18.4555 18.6583 16.0626 16.2787L14.2897 18.0617ZM11.6755 1.94127C9.96631 -0.337705 6.60817 -0.69966 4.56882 1.32796L6.34005 3.11093C7.23153 2.22447 8.81341 2.31663 9.663 3.4511L11.6739 1.94127H11.6755ZM2.92494 7.46277C2.89142 6.88297 3.15786 6.27636 3.71085 5.72672L1.93626 3.94376C1.0364 4.83859 0.327571 6.10544 0.413033 7.60353L2.92494 7.46277ZM27.5915 27.6719C27.1324 28.1311 26.6364 28.3892 26.142 28.4344L26.375 30.9362C27.6066 30.8206 28.6137 30.2006 29.3644 29.4549L27.5915 27.6719ZM13.4049 10.8561C15.0555 9.21557 15.1778 6.62323 13.7886 4.76654L11.7761 6.27301C12.4514 7.17622 12.3509 8.36095 11.6337 9.07649L13.4049 10.8561ZM29.3577 21.8471C30.7268 22.5912 30.9396 24.344 29.9727 25.3058L31.7456 27.0871C33.9911 24.8534 33.299 21.1283 30.5559 19.6385L29.3577 21.8471ZM23.5916 20.4245C24.2351 19.7843 25.2707 19.6268 26.1554 20.1061L27.3552 17.8991C25.5388 16.9105 23.2866 17.1836 21.8187 18.6415L23.5916 20.4245Z" fill="#F5F5F5"/>
</svg>
