<svg width="17" height="17" viewBox="0 0 17 17" fill="none" xmlns="http://www.w3.org/2000/svg">
<path d="M12.232 1.75671C12.4228 1.53109 12.6586 1.34745 12.9247 1.21748C13.1908 1.08751 13.4811 1.01406 13.7773 1.00183C14.0735 0.989594 14.369 1.03884 14.645 1.14642C14.921 1.254 15.1714 1.41755 15.3802 1.62666C15.5891 1.83578 15.7519 2.08585 15.8582 2.36096C15.9644 2.63606 16.0119 2.93016 15.9975 3.22451C15.9831 3.51885 15.9072 3.80699 15.7746 4.07055C15.6419 4.33411 15.4556 4.56731 15.2273 4.7553L5.11842 14.8755L1 16L2.1232 11.8769L12.232 1.75671Z" stroke="#454545" stroke-width="2" stroke-linecap="round" stroke-linejoin="round"/>
</svg>
