<svg width="156" height="120" viewBox="0 0 156 120" fill="none" xmlns="http://www.w3.org/2000/svg">
<path d="M1 89.5L41.7429 48.9159C43.3929 47.2722 45.3518 45.9685 47.5077 45.0789C49.6635 44.1894 51.9742 43.7316 54.3077 43.7316C56.6412 43.7316 58.9519 44.1894 61.1077 45.0789C63.2636 45.9685 65.2225 47.2722 66.8725 48.9159L107.615 89.5M95.7692 77.7L106.897 66.6159C108.547 64.9722 110.506 63.6685 112.661 62.7789C114.817 61.8894 117.128 61.4316 119.462 61.4316C121.795 61.4316 124.106 61.8894 126.262 62.7789C128.417 63.6685 130.376 64.9722 132.026 66.6159L155 89.5M12.8462 119H143.154C146.296 119 149.309 117.757 151.53 115.544C153.752 113.331 155 110.33 155 107.2V12.8C155 9.67045 153.752 6.66907 151.53 4.45614C149.309 2.24321 146.296 1 143.154 1H12.8462C9.70436 1 6.69124 2.24321 4.46966 4.45614C2.24807 6.66907 1 9.67045 1 12.8V107.2C1 110.33 2.24807 113.331 4.46966 115.544C6.69124 117.757 9.70436 119 12.8462 119ZM95.7692 30.5H95.8324V30.5629H95.7692V30.5ZM98.7308 30.5C98.7308 31.2824 98.4188 32.0327 97.8634 32.586C97.308 33.1392 96.5547 33.45 95.7692 33.45C94.9838 33.45 94.2305 33.1392 93.6751 32.586C93.1197 32.0327 92.8077 31.2824 92.8077 30.5C92.8077 29.7176 93.1197 28.9673 93.6751 28.414C94.2305 27.8608 94.9838 27.55 95.7692 27.55C96.5547 27.55 97.308 27.8608 97.8634 28.414C98.4188 28.9673 98.7308 29.7176 98.7308 30.5Z" stroke="#212528" stroke-opacity="0.5" stroke-width="1.5" stroke-linecap="round" stroke-linejoin="round"/>
</svg>
