<svg width="88" height="16" viewBox="0 0 88 16" fill="none" xmlns="http://www.w3.org/2000/svg">
<path d="M3.02786 15.8991L4.3142 10.3145L0 6.55837L5.6995 6.06152L7.91597 0.794922L10.1324 6.06152L15.8319 6.55837L11.5177 10.3145L12.8041 15.8991L7.91597 12.9379L3.02786 15.8991Z" fill="#CCB746"/>
<path d="M21.2339 15.8991L22.5203 10.3145L18.2061 6.55837L23.9056 6.06152L26.122 0.794922L28.3385 6.06152L34.038 6.55837L29.7238 10.3145L31.0101 15.8991L26.122 12.9379L21.2339 15.8991Z" fill="#CCB746"/>
<path d="M38.439 15.8991L39.7253 10.3145L35.4111 6.55837L41.1106 6.06152L43.3271 0.794922L45.5436 6.06152L51.2431 6.55837L46.9289 10.3145L48.2152 15.8991L43.3271 12.9379L38.439 15.8991Z" fill="#CCB746"/>
<path d="M56.649 15.8991L57.9353 10.3145L53.6211 6.55837L59.3206 6.06152L61.5371 0.794922L63.7535 6.06152L69.453 6.55837L65.1388 10.3145L66.4252 15.8991L61.5371 12.9379L56.649 15.8991Z" fill="#CCB746"/>
<path d="M74.856 15.8991L76.1423 10.3145L71.8281 6.55837L77.5276 6.06152L79.7441 0.794922L81.9606 6.06152L87.6601 6.55837L83.3459 10.3145L84.6322 15.8991L79.7441 12.9379L74.856 15.8991Z" fill="#CCB746"/>
</svg>
