<svg width="20" height="19" viewBox="0 0 20 19" fill="none" xmlns="http://www.w3.org/2000/svg">
<path d="M18.9492 9.52565C18.9492 6.14142 18.9492 4.44885 17.8974 3.39796C16.8465 2.34616 15.154 2.34616 11.7697 2.34616H8.17999C4.79576 2.34616 3.10319 2.34616 2.0523 3.39796C1.0005 4.44885 1.0005 6.14142 1.0005 9.52565V11.3205C1.0005 14.7048 1.0005 16.3973 2.0523 17.4482C3.10319 18.5 4.79576 18.5 8.17999 18.5H11.7697C15.154 18.5 16.8465 18.5 17.8974 17.4482C18.9492 16.3973 18.9492 14.7048 18.9492 11.3205V9.52565Z" stroke="#F5F5F5"/>
<path d="M14.4615 2.34615V1M5.48718 2.34615V1M18.5 6.83333H1.44872" stroke="#F5F5F5" stroke-linecap="round"/>
<path d="M5.09014 14.0128C5.09014 14.1182 5.13202 14.2193 5.20655 14.2938C5.28108 14.3684 5.38217 14.4102 5.48758 14.4102C5.59299 14.4102 5.69408 14.3684 5.76861 14.2938C5.84314 14.2193 5.88502 14.1182 5.88502 14.0128C5.88502 13.9074 5.84314 13.8063 5.76861 13.7318C5.69408 13.6573 5.59299 13.6154 5.48758 13.6154C5.38217 13.6154 5.28108 13.6573 5.20655 13.7318C5.13202 13.8063 5.09014 13.9074 5.09014 14.0128ZM5.09014 10.4231C5.09014 10.5285 5.13202 10.6296 5.20655 10.7041C5.28108 10.7786 5.38217 10.8205 5.48758 10.8205C5.59299 10.8205 5.69408 10.7786 5.76861 10.7041C5.84314 10.6296 5.88502 10.5285 5.88502 10.4231C5.88502 10.3177 5.84314 10.2166 5.76861 10.142C5.69408 10.0675 5.59299 10.0256 5.48758 10.0256C5.38217 10.0256 5.28108 10.0675 5.20655 10.142C5.13202 10.2166 5.09014 10.3177 5.09014 10.4231ZM9.57732 14.0128C9.57732 14.1182 9.6192 14.2193 9.69373 14.2938C9.76826 14.3684 9.86935 14.4102 9.97476 14.4102C10.0802 14.4102 10.1813 14.3684 10.2558 14.2938C10.3303 14.2193 10.3722 14.1182 10.3722 14.0128C10.3722 13.9074 10.3303 13.8063 10.2558 13.7318C10.1813 13.6573 10.0802 13.6154 9.97476 13.6154C9.86935 13.6154 9.76826 13.6573 9.69373 13.7318C9.6192 13.8063 9.57732 13.9074 9.57732 14.0128ZM9.57732 10.4231C9.57732 10.5285 9.6192 10.6296 9.69373 10.7041C9.76826 10.7786 9.86935 10.8205 9.97476 10.8205C10.0802 10.8205 10.1813 10.7786 10.2558 10.7041C10.3303 10.6296 10.3722 10.5285 10.3722 10.4231C10.3722 10.3177 10.3303 10.2166 10.2558 10.142C10.1813 10.0675 10.0802 10.0256 9.97476 10.0256C9.86935 10.0256 9.76826 10.0675 9.69373 10.142C9.6192 10.2166 9.57732 10.3177 9.57732 10.4231ZM14.0645 14.0128C14.0645 14.1182 14.1064 14.2193 14.1809 14.2938C14.2554 14.3684 14.3565 14.4102 14.4619 14.4102C14.5673 14.4102 14.6684 14.3684 14.743 14.2938C14.8175 14.2193 14.8594 14.1182 14.8594 14.0128C14.8594 13.9074 14.8175 13.8063 14.743 13.7318C14.6684 13.6573 14.5673 13.6154 14.4619 13.6154C14.3565 13.6154 14.2554 13.6573 14.1809 13.7318C14.1064 13.8063 14.0645 13.9074 14.0645 14.0128ZM14.0645 10.4231C14.0645 10.5285 14.1064 10.6296 14.1809 10.7041C14.2554 10.7786 14.3565 10.8205 14.4619 10.8205C14.5673 10.8205 14.6684 10.7786 14.743 10.7041C14.8175 10.6296 14.8594 10.5285 14.8594 10.4231C14.8594 10.3177 14.8175 10.2166 14.743 10.142C14.6684 10.0675 14.5673 10.0256 14.4619 10.0256C14.3565 10.0256 14.2554 10.0675 14.1809 10.142C14.1064 10.2166 14.0645 10.3177 14.0645 10.4231Z" stroke="#F5F5F5"/>
</svg>
